<mxfile host="65bd71144e">
    <diagram id="feomwHsFVYZzvPC0utKh" name="Page-1">
        <mxGraphModel dx="1966" dy="2724" grid="0" gridSize="10" guides="1" tooltips="1" connect="1" arrows="1" fold="1" page="0" pageScale="1" pageWidth="850" pageHeight="1100" math="0" shadow="0">
            <root>
                <mxCell id="0"/>
                <mxCell id="1" parent="0"/>
                <mxCell id="2" value="" style="shape=image;verticalLabelPosition=bottom;labelBackgroundColor=default;verticalAlign=top;aspect=fixed;imageAspect=0;image=data:image/png,iVBORw0KGgoAAAANSUhEUgAAA1EAAAD7CAYAAACL6h6/AAAgAElEQVR4Ae2dT6tdRdb/HTvqQYONbfce6cTOJHlQggMbNNo4URtMnkekO4l/EnokRGgiEi5PQhQS0GfwIIRICNfQIXHye6JiaJC+YMAmN+JArpDcF5G8AdePVVWralXVqr3Pvvece8899zs47HP2rl1/Vn1qn/Xdq3bth7quI3xgAzAABsAAGAADYAAMgAEwAAbAwGQMPARDTWYo2Al2AgNgAAyAATAABsAAGAADYIAZgIhCJA6RSDAABsAAGAADYAAMgAEwAAZGMAARNcJYuPOAOw9gAAyAATAABsAAGAADYAAMQERBROGuAxgAA2AADIABMAAGwAAYAAMjGICIGmEs3HXAXQcwAAbAABgAA2AADIABMAAGIKIgonDXAQyAATAABsAAGAADYAAMgIERDOxqEfX+3/5F/3z9P0cC83e6cvZfdCt8xp9vKXed59f0v/9hpdnsvsP01Pk1OngxfN4/PbLdmy2/df5pepbrdP4yPTECXNwBatkz7T9z6WGir36T9fPVrx6ie2dTmg3Z8eyviH5+iOjnX9FV9Flm3w3ZEzaEDcEAGAADYAAM7DgGdp6I+o//oX+evUzvTwG2jYgoPufW3/4+o45mMWWLqI3UVTt0T7xze3uEyqs3BsrdPhF1dPkzWl+/Fj7n6MMpMKVt3vz+1kn6cX3G5TmhY4ico7+mBz8/TLeOblRI/Ybu/TwFIbZVtkY5M7pWbZQfnNe8LoBVsAoGwAAY2FEMQESNikT9J/3vyX/RlT/NyhGYnYja8/4avfTO4a2Hc1BEzcqW/fl+eJPFkxYyR+mbm0e3xj4zF1EDQocF1ve/pjMbuVg7EWaIs43khXO2hjfYGXYGA2AADIABMDB1BhoiyosFmbKWRV7+dNlNZUtCIqQ9+T/0X9xBfPxvf6f/ev3rxpQ3PXXtX3RLznOdm0SKi/i4KXMSmSnOi1Pq5Hi/0+zv/hXtOltM5wtt8+228vV1SG3XZRZ5Z+2qxZEdWarTaTvG/uC2j4qG+al8lohyESo9tW//ZXrp4g3a4/qDz7tNT+0P0SI3FVCOSduLaYJyrstHTR+UaYRyvOvIlS37dR1koJd5qDR8LreHxaFMUXz2VanTwNaJmM/oylvtdHmU6hp981FK645pwZWJoqP0DYszty9Eue6cpKOuTXxMIl96m9clL1sLvY5Y/P24/BzpNLpuzLk1jS+/+/0Y3fp+g9EkiKipX4TzvkmcYT9sAQbAABgAA2BgfhkwRVQ+Zc2LA/3sj3fs/ZQ6910LBhEi4uS76XciSMq8gvCQtF0SIlJeXpeOuk1M5yvzyoRMVs8gBmXaoDuWnoNKYiZNK/yv1y+rZ5nKdtbiKCtbRENXp5PBY6cfAkuLnyQ2Dl5kYeTPHRZRfJ6kL8VYEFBK3Eh943aCSFRVB2cPX/ckjPxvEYIiwLLfEz5X5QRIFDaGDT86l0ep3O8kdIZFlI5yeeGUCZ1MdBXlF2WXdfURtGu0HkRcebzrJhNIw0KrqJcwChEFESUsYAsWwAAYAANgYBczYIgoduSTOHDOMAsjLZS6jrxT/z/1MzxVWi8oXPTGCawi70wUlaIqiBlddpa+4ehZHWqcp4UJi0ERbl4AqHrH/Ng2k03nc+IyisNaHOmyo+CYuogS+5TiR/aHaJAWQVUkao2SkCnSs0BSkaXUjpR/t0ER5URSKYpUXpXwyuqtyo99l/bVwiMd67rn6ModH+3R7ZEIEO8bFlFJcHF6fa7Ls0dEcdpMcHUswlJ+TkRpAVjlxVP5JnjmaaNT+jZ6ntEP2r74rhnEd/AABsAAGAADYGDeGahFlBMbRtRFCxnnEHlBkQsPQ/SE6JJLVwmsMrJkCZcCIkMMTWRk4zwtZPh7ijCl7/nUvR4RZdltwUWUKXRKZ1kJn1Y/VYJIpvppccf5qryqc6YsonIhkwuh2YkoL+DSYhcy5S8XUTydr2XLbtKFI8ZGlFz6h6rV/pr1KDnA73afwTawDRgAA2AADICBHcdAQ0QV0aKqY0XsGKKiEkqStpgiJ3lm0SmVVo6XW0MMTeTIGeeVIqoShGXZLlJkRaJqQblrIlFltKi0mRI+rX6qBJGIqCJvLdqqc0aIqK6YnpfXy4pE5ftmLaJKAafrV0W1Snt3iERpe+F7cROq4gXHwQgYAANgAAyAgY0wUIsoeS4pRlFqw2bPQWUiqI5EubRxemApNrxoSuJlAhHVFDJ1PXOD5ILP10stLOHaIc9utfLK80j5F/slKhVtmB+vyo6ODaez65DZPKZv1bPcPzCdL4oVeYZKFo/w5zWn83X5c0rJHqp8J27kmSq1X7WhEkR8zJ2npxLmz0hV54wRUWHK3rqeFsfT5vRzRnrlvt7nlGSxCFkAIp9+xzaphY/xnFSwhxNoumxlJzuv0qZ4JsrksLAj0pTc4DeYAANgAAyAATAwhgFDRLEBvZjR09tE6HgBoB19SRuiV06MpOlwt6KAko7xgiLmHYVGKjefQifnqW1Whq6LSmM5Tfq8sIKgtMsZTR93q/+VEblcDGlDizDy7bpM/8urE+q26bz/9vfwTFl40a8+1lx1UOwcbKvzttqa7WuLqK7zx/wKd7fpqVfL1fm0kCmeiXJliPCShStEgKW+cIJHVuGLz1DpcuXcNTqop/AFISWr78kiEmz3zYkorls5dU5EkK+3FzP1dDrf5/rcz+jKR/q9T5OIqI58NMzOPy/7GmmxVwuyZGfh0S0a0buE+WRCS/LLtmOnAWYc1nXN8kbaHTeVAf0HpsEAGAADYGC3MtAQUZsAggVB9fzUJvKDYwXHCgyMZADvidqtF3S0G/81YAAMgAEwAAa2hgGIKDjoIx30rQETF4BN2plX0fvZeCnupAtPNMfFhM9cNc/fZLuQL8YrGAADYAAMgAEwMAcMQETNQSdAMMCxngUD1rugrn61wZfs6nHiBNpDtkjT6fAdf3JgAAyAATAABsDAgjIwfRG1oIaahZOLPCGewAAYAANgAAyAATAABsDAzmMAIgqiD3dIwAAYAANgAAyAATAABsAAGBjBQCWi/vjHP8KAIwyIOwc7784B+gx9BgbAABgAA2AADIABMLAZBiCiIJggmsEAGAADYAAMgAEwAAbAABgYwQBE1AhjbUat4lzc7QADYAAMgAEwAAbAABgAA4vBAEQURBTuOoABMAAGwAAYAANgAAyAATAwggGIqBHG2vidg6v0zMoD2vf6Yijvjdthmu0/St+sX6N19/mMrrw1zby3Kq/D9Pmba/T1/lZ5V+m3lx7QY83jrfO2Z//vjz+gR4+fwQV4S64pm+vjp5fv08Wb/5hZXx158Tb98OLhmeU/H9egzfUB2gD7gQEwAAZ2NgOLJ6JevUEHz1+mJ+bKkYGIsi8UWgh5QfTNR2MHFOcxAxH11kn6cf0cfThDjs6+tkZ3XzvdcDTP0GMf0wZEyWk6fucX+mC0Hb3dX7n5C51fbtVpqG9Y9BH99s9D6ebt+HbabHtsMWsR1XWn6et3+24QbE+77esQ6gK7gAEwAAbAwHgGIKJm6CQnICGiki0E0ufoyp1r9OPycw0RIemGtjtURO2/QXffvUFnG/xxVOeRj2/R7xvHa3uKnbZZEOy/RY9euke/G11vqb+1PUxPnb9NT80sIrfNNpuqrSz71ftmL6I66v5wmX7oYbzNcF1fpIVNwAAYAANgYN4YmJGIYqdnjQ5elM8N2hMdhdP0bNy/VkSN+NgN2rP/Mr0kacqoEkea5NjFNXrpnTBlRJ+jjh/k/GLZPQCevEcvL1+lxz95QC+vkPs8/0mamuT2L19NDv/rt+j5lXv0JOftzr1F+77k8x7QvpN8jOjlL2/R467sIKJkf3Ys1InzCOW6PNTUvyeXibguum7PnOxpyyTtnSiNFzo6OnR0+TNav3k02eGjc2FKnY8klaLIpY/T7lRkx0V6hiJIeaSqzNsPppaI8nX30/2u5XUObc/rdo18O/My4/lFtOvDmzKVkLd5O/gY11Xnr23YdZuZxucd/ovrv5D/3KVXQns4ipT2p+9ZZOmju1kaiVg5pzrmmc7Np3z9gz5QabJ8FU+/+2AjEbQBnsO4f/bVgXSqHuliO/82S3VN7eM+YRvrfpX+4khPGXFMwoiP3afjy6Gvb/4j5iHnS1o7b65DYbNs6l8qO51/n44bU2o52mpP6ztF11dXafWLU+laYvZdsodlI+yDfcAAGAADYGC7GJiBiAoC6n1rSpA/FoVPV6YVgSXCx/9OjhP/HrgjvdHpfCJiRCi530EkdZ0XMHKM/+xLEbVCxMKGBc/LTlzp6BN/l/0M+xknuKJIc3mpZ6aKsn2e5EQeg+LEVBRosxw8QyKqJWBCnZzASsLJiYo7J+moc5ZE5OQCJA0EfzwJJy9ucjHC5dh1cCInir0yry4InFS3VG6oe890vrwddV5RYIXyy/SDd+j/fK8ZhRLnt6pvdECTg1un+Qd9oJ1hJ6iSCOP07BTb4sjnm455QSVOeVZWT/2zdLHOEzIcbpSk68dk5+0Imxm2cPVeT/3hft/5jp52aet+Tu30xy5y2re+o/Mhj3S8ozLvrmDBiaPIStn3IX9Vtzy96heOuL55mY5U7YOI2tRYqOypbI5jEOZgAAyAgS1hYPoiyt0xFhFUXNitY84xkvS1SNrzvoo2dV5U9TpRmxFRmTDRImgCERXOlahR1+nz9XdvEy2E+HsUVA58L7Ik2uRElK6bFnADA+Wvn/2bfvrpp+rz/84UfWPmM4mIak/JYzGRi55a8OhoTRJMHXUsYqLg8nV1aaMwkvrXeXphVQgkFnQxv5YgkzxD+eYzUda5uZ2ciIplGXk1HUtfvpvK94GKeqq+8c5vLnxyZ6x2rvPjqo0dC6E8gtAUUeyMRwfe56Gd8qyM0VP6/LjWEWb3vYxCOzuEtOZNGt229H1H2Ez1sdiysq8TRNL3dT+n9OqYOicdDyIqiiS2lRbF/F3KCXZkkRX7P4gofX52PNl+8IaB0W5pP7bKjrDTljhEYA7MgQEwMIaBqYuoJ965XUzRUx1iCZxRIqqjLpu2J+JroIxJ/oA4+qOFSiaCpi+i3BRAJbzSVD4/lZB/axGViyzV3knatuE0uThgsCoh4yI2MrVNCxd/bpoOJ2kakSfJR0RSMU0w5iPHY5sMESV5xWmEoWwRNu54ox6Sr0uj2yM2N8rrcjuxiMoEoeQZtrxymX133pfB0+EeaYgo7gN31z9Mq0uRIamfcqCLcstz/dS/CUWUi1SoaX4yrU870rG8Wa4qKIJrICId6+LtMv82k/5LWy163EVdCSKZbqcjgSm9YkCdk45bIqo8x+jrQkTpsl39Cpv7fbzAxG36/A+pXe20SAPbgAEwAAbAwM5hYOoiqrOEkvy5WpGobB87SLlzlEeicsM6wVY+89RXvtTD2m6xiHKRqDA9MEWv8vbJQBo6Lums7WwjUXl9fVRJhEcuLKy6lfvc+SJ0sshRXk5+niFqmgJI8jHOKZlo5sHnWhG2tG9IRHWbiETlbffRg1xIKWe4aJNzorMIw4hIVCvSUJTh6jerSNQGp/PtCJsZdtSix7VBCaLpiyjFQlaOjBm9bTOW2xqLS1T2MPoZaTRb+A4ewAAY2DkMTF9E9U6583eR03S88hmpcSLKCbZSRDlHKxdiEwE5iYiKkariGSd1bhI8egqf/s5w+PMl0uSiUj3vkUp5bjVYXgjFqIpEh6poUKiXOy4iqn5WqL8fQuQq5u3FSiy76XxYgqjMq7ZbNeWuyt8SSz6f8txM/HUdDYqooVXLJn6myDuzuYgKkSojQuSc8hhNkIhWHokq06Q+swRbbVeXfuL6N86v+iJFoNPzkSPOzfKbP5ud+mKVVldX6fpS3qZJRFTse4kUun5XIkcJIp2f/s59lve7Pz9fVETXTeWf2VanCd+bNwzCM1HfXqA3hvLAcUxlAwNgAAyAgTlkYAYiiv88ZcrNBKvzZc82DIgoF7WSPHlriyUfoZJ0xpQ/qyOUEPKOYyl8/HNKftqdrMCnVudTU/P81Dt9vhdNespeFFBSFy4/rs6nF6Hwi1Vsz3Q+eZ4nTYf7UK/OJ6IqTpurp8j56JRM5buWnkuqzrVW0PNCJk7l0xEg6/xslbwgpGLd6il2Tgyp4/nzWx11WRl52/Jzk3BkdgZFVFidz161jMdP631LwbmVqXS8NcSSPN8iK/VFRzs895L2f1c9EyURDkmT5++FVDy2br+Pavqr8/HNFnus+7FqOO8yrspV5ubQZhsTUTw2/aIRrj/ufEevxBfoKpHTJ6I0R0pce5vWrCWOVP7RznYftFfne4MufMvicYUu/MU+d7hvcR5sBAbAABgAA9vHwIxE1PY1CDDB9juCAb5D3/MOnY2/J2qb+3/0VL5tru+ACNgRLM1rGwYirk48IhKFu8vzyi/qBTbBABgYYAAiasBAcKLg5M6KAb5Lf/c161UAbPMz9NjHM3jf0kx5b0XQwNCsGJrffHlBiTX62npB8tJ1N31xFQIKDspMr0e47szv9QF9g75ZDAYgonARxx/5tjGwmZfuzt8FiKNnjx5PL6jGn8T89dFW9QmvQNmerrp77bJV9kc5YAwMgAEwMHsGIKK2zYGefediAMHGYAAMgAEwAAbAABgAA2Bg+gxAREFEIRIFBsAAGAADYAAMgAEwAAbAwAgGIKJGGAsqfvoqHjaFTcEAGAADYAAMgAEwAAZ2GgMQURBRuOsABsAAGAADYAAMgAEwAAbAwAgGIKJGGGunKWTUF3d1wAAYAANgAAyAATAABsDA9BmAiIKIwl0HMAAGwAAYAANgAAyAATAABkYwABHVMtZbJ+nH9XP0YXH8w5vXaH39M7ry1vQV7UzuEnx0jtbvnKSjRTtmUtbclXGUvlm/tqPaf3T5M1q/eXSyixi/sPfNy3RE251fcFru08fxfTLbwk6wExgAA2AADIABMNDDwOKJqFdv0MHzl+mJnkZPJCDmTESxePtx+bnxMC+kiHqOrtxhMas/teDtuu0TURvtr4lFFIuld2/T53+oxXz/S3zr9BONh82OJ5w/fuzCZrAZGAADYAAMgIG5ZQAiqgVnQ0Rtl8O5Uae8W2ARpUWljxBaQmp7RMNG+2syEeVf0tt+menQS3y3xybbNXZQLvobDIABMAAGwAAYmDYDMxJRh+mp82t08KJ8btCeKFZO07Nx/1oRNeJjN2jP/sv0kqQpo0ocaZJjF9fopXcOe4Wqz1HHD3J+sewBgFhwtKIbTlRJ5MNy1svoiE7DEZFz9KHOo5xiV5T9zUe+rs6pzuoU6lBM+SrTyfkioj7kaWIhHy0+pg2Uzq8SBJUw7bMZtz9Ekqp6+/PyduT7MnsUtvJ1zPPOpjxyX9w8SjqPvKwuO6and+pzxN5um9Wh3W6xmReFvq9jXwrH1jQ+OSbbnjRvfLpCq6srdOEvA+NB8sJ2bu+C6fGG7+AZDIABMAAGwMDWMTADERUE1PunDcfDH4vCpyvTisAS4eN/P/uqGIR/36an9stvY7vR6XzOwVfPOlUOfyirsV+cXxtecdhFWOUOvxML2sl2gkrS+nL7Ihvecc/Tx3qIOJP8jbxj2ik7y5VNCttVx7PyDRutXyMvKMpjyUbl80StMvrs6YQnCzexmcHGN2pqpSujEMXt/IOAkryzNidxJqLNypun67WjUDImTtPXjel+EFFiI2xnNfaRL9gCA2AADICBRWdg+iLKRYpEBBUAWcdcBEnS1yJpz/sq2tR5UZVEWJE/O6QbFFGV01s4/BGExn7n7BoLUfjzWEQpgdYFZ7nhSPsITJ6+ql90vr1Aq6IVcpxFU+bg13WJbZNz4va/6f/99BP9VH5uXaK/xjRGH4RjlYApbNdrM06b1VvbzBZRVXk9dmZ75nZR7ahs5str2rhoF9uz2V8DIrZqQ5X3pFP1Jk2n2j1Bn7ZZQT6wDRgAA2AADIABMLB7GJi6iHrindvFFD1lTEvgjBJRHXXZtD0RXwNlTOAcVk5v5byGMlr7g+MsU7gkkuAHUy1cnLOsRIJz6rNpexOKKFefPG02gCtBUNclSz+BrSZNPywIvNgwbebEhkyfVFsnPG0R5WxYCNOqDrF9ISIUbJ4JpMpmZXn5ub7+eSSw4imUW/Z7acuqvhVvHGFao6/7orGhrMkiVmrsRNtgX9kv+A0mwAAYAANgAAyAAc3A1EVUbyTIikRl+4YiUXnnOcFWPvNkCbUJnMPK6a2c11B2a39Who8OJSFVCxftLLvvWRSrTl/VL5ZXp9UdLM9EpSXOB9LHfLm9s41EZfUMzz9Fm1VCRvd9KWr4GLerXsFQ2zkvT+Xn+lSmCnZU28yXJ0LLiTUlgDuDiWZ/9bZLR9tC/aq8J40wTZpO2SHre+xv8gI7GVO1wQt4AQNgAAyAgd3FwPRFVO+Uu3I6XvmM1DgR5QRbKaJcpGrguSnDCXLOdnSMvUO+ngmbAEbl1FrAlE5+IVwKpz0vW6IzeXSpTKMHauXU6/ZVTntRF512yt/zOvfY1JVr2awWRb7dZVr/25qe5+pQRKe07fx3XzcRSaWIcnkoFpy9Y56hbHWc88zbrhnxZUWxWNi8qq/B22QRpqFnolbp+pKuF77XXMAmsAkYAANgAAyAATBgMzADEcUFebGUVtHT0+6KY9kCFAMiykWtZMU/3tpiyUeoJJ0u2zaCh0OcYZ46xgKGnd00Rcs70mpamZsGJsf1uSFNdLK5TBEQ6fzosDsnOj/+4/LJ6hmqrivKyPIX4WXkv40iKq/zZ3TlI/0C46I9eiGHKCxyu/C0OW+3oXON41n+db6ZqGGbhWl+1lQ9H3lStl7W7RLGijpk/VWWLxxNEoniKa036O67N+hstJOUqbY9q/N1S9dpdXWVVr84hYhCnw1xDHyAATAABsAAGAADDQZmJKKUM9coeHepWnaa88jS7mr/DuOhEp7zVn8/Va+9Qt/AVL6/XKCVVUSiMAbnjWvUB0yCATAABsDAzmEAImpLRB5E1I66KMy9iOqo+8Nl+qGxhDlP97v7mvWKgTfowrerLgqFqXw75yK9o8bOllxP0XdgAgyAATAABrafAYioLfnTh4jaUYN9J4go5taassfi6s3LdGRLuN7+C9iO4gp9gikhYAAMgAEwAAYWhgGIKMC8MDDDoYaoAQNgAAyAATAABsAAGNgKBiCiIKIgosAAGAADYAAMgAEwAAbAABgYwQBE1AhjbYWqRRm4ewIGwAAYAANgAAyAATAABuabAYgoiCjcdQADYAAMgAEwAAbAABgAA2BgBAMQUSOMhTsC831HAP2D/gEDYAAMgAEwAAbAABjYCgYgoiCicNcBDIABMAAGwAAYAANgAAyAgREMQESNMFZStafp68Y7elIa3AWALcAAGAADYAAMgAEwAAbAwCIyMIci6j/pf0/+i678aV6BO0yfv7lGP7x4GGp9QwJ0XvsV9VrECxzaBK7BABgAA2AADICBWTAAETVSCBx58TbdxctMISBHcjOLwYs88acABsAAGAADYAAMgIHtYWD6Iuo//of+efYyvd/9na6c/Rfd4s/J/6H/ik6njzS5/Xzsb3+PDvn7fwvp5byw/efr/+nT/OlykReX8TX9738E48lxV4eQV8yfy+W0ql6unmMMj2l8GKhjeEFa8AIGwAAYAANgAAyAgUVkYEYiigWMiBsvWmR6nhNKmbD5F0WR5IRWz3Q+EUlRkBkiygkvFnEddU5MST1EvOW/87IHIN9/A1GoaPsBWyFdvDmwiBcOtAn8gwEwAAbAABgAA7uZgZmJKBFNbFwWTl6ssOgJAkec7EoYbVZEiUhisHVe+ruH/r9e/zqLhA2B4KbyvXYazrH0HbZgAQyAATAABsAAGAADYGAXMjAjEVUIJTGsnmanp+wZ0/20CIviphJcRiQqy0vfIdi8iDr72hrdhYjChUJ4xhYsgAEwAAbAABgAA2BgVzKwDSKqIbAigLXYmRcRhUiUFqX4HrmM7MImsAkYAANgAAyAATAABnYDA1srosL0Or2YhGXk/LkpBSJHouJ0QC+20rNXHXVVpEqdm03t8/vHTufr8EzUrrzTYDGKfXps4Tt4AANgAAyAATAABnYXA1ssoti4In7SSnz14g5+MQpZwU8f1yv4XfnT1k7n6zpenW+Nvt6/uyDBRQH9DQbAABgAA2AADIABMAAGEgPTF1ELPrUJ74lK8GAgwRZgAAyAATAABsAAGAADu5EBiKjRou8wff7mGv3w4mFMbRttO1xkduNFBm0G92AADIABMAAGwMCiMQARtSEhgJfuLtpAQHtwcQcDYAAMgAEwAAbAABiYlAGIqA2JKAA2KWBIB1bAABgAA2AADIABMAAGFo0BiCiIKExLBANgAAyAATAABsAAGAADYGAEA1MVUX/84x9h/BHGXzRFjvbgLhMYAANgAAyAATAABsDAbmAAIgqiB8IXDIABMAAGwAAYAANgAAyAgREMQESNMNZuUNVoI+4egQEwAAbAABgAA2AADICBfgYgoiCicNcBDIABMAAGwAAYAANgAAyAgREMQESNMBYUeb8ih31gHzAABsAAGAADYAAMgIHdwABEFEQU7jqAATAABsAAGAADYAAMgAEwMIKB+RZR+w7RiaVjdCA2aC8deu8EHdoHhb8bFD7aCM7BABgAA2AADIABMAAG5pGB+RVRLxyjpaUlOvZCAU5rfxRaRXrsx10FMAAGwAAYAANgAAyAATAABqbIwFyKqL0HT9DSUk/EyUWolujEwb2AYYowzKPKR51wUwAMgAEwAAbAABgAA2Bg3hiYOxF14O0lWsqm8LWgOUDHlpZo6e0DEFIQUmAADIABMAAGwAAYAANgAAxsGQNzJqKCMBojovoiVgBpy0Cat7sDqE/r5gP2gw0wAAbAABgAA2AADGyWgTkTUb5DMZ0PYG8WbJwPhsAAGAADYAAMgAEwAAZmxebzEXsAACAASURBVMBciijX2NYCEuF5qGrBCUSdEHUCA2AADIABMAAGwAAYAANgYAsYmF8RxY3HEucYBFswCGZ1hwL54u4XGAADYAAMgAEwAAYWk4H5FlFwoCGiwAAYAANgAAyAATAABsAAGJgzBiCi5qxDcLdiMe9WoF/Rr2AADIABMAAGwAAYWBwGIKIgonBnAwyAATAABsAAGAADYAAMgIERDEBEjTAW7h4szt0D9CX6EgyAATAABsAAGAADYGCjDEBEQUThrgMYAANgAAyAATAABsAAGAADIxiYKxH1xz/+EZ03ovM2qpxxHu66gAEwAAbAABgAA2AADICBjTMAEQXRAuEKBsAAGAADYAAMgAEwAAbAwAgGIKJGGAtqfeNqHbaD7cAAGAADYAAMgAEwAAYWhQGIKIgo3HUAA2AADIABMAAGwAAYAANgYAQDEFEjjOWV8xl67GOiRy4RPXr8zBbAdob2fUn0zMkZ3bnYf4sevcTteUCP7d9kGfsO0YmlY3RgtE03WS7K2wIO0UeLcucM7QDLYAAMgAEwAAY2zwBE1EgH/PfHH9AjH9+i3488b+OwzlhESTv+fG/T7Trw9hKdOLgXDr3YFFuwAAbAABgAA2AADICBhWRgoUXUOKd+Lx167wQd2tevTH/3wVZFoKQeWySiuqv020v36He9A/0AHVtq2YiPjYxCvXCMlt4+sJADa+OiWfodW9gQDIABMAAGwAAYAAPzysCCiigWREu09N4h2htFwWF66vxtemr/aXr24hoddJ8btCce76hjp35piY690AbWFlEsdB7Qvtev0jMrRC+7zz16MubN+/l4yvfJZaLnP+HpgOHcT+7585avEh/jPPwUPhFRrbw5T31M8g1lvX6Lnl/huqg0X96ix2PdpE4DIspN1WtHmvYePFEJoifeuU0vvXOY9rwv9l6jZ1+V8nhr9ZM+ju/zeuFAvcAmGAADYAAMgAEwsJsZWEARxRGRpcqh7zoWUezMs5Dy0Dvn/v3TeSRkQCy0RRQLHxFKXvh4kcRlDYkoopdZ2DjB40XQ4588oJeXrwaRpfPuvMhyxzhvqywRYB11Ic9UNy+m6mesekTUoLi0I1QsolisspByg+zVG3TwYiFcu444Yrg0NopViUBcyHbzhQxtB/9gAAyAATAABsDAVjKwWCKqVwB5EZVFQtipP3+Znqgc8pYQ84tK/PbPJaQSLUr7kwjifcMiyomaGDXqKJ1f592d5KhViHTxOUVkKZ2bRJQWTSkKlurLYowXzCjb5iJMzSl84XwWWVnUz+93IioTqRwFTCJWgz5ROVU/6frju7YnvoMHMAAGwAAYAANgAAzMjoGFElHeEW9NOWuIKCMy0nVBRCnxwBGo9gp2tdDJhMy0RZQSW15QyRRCtZVIlU47KEJk5UF5NipMt1N2qAejT2NNgbRFVDmlz8MtfYdnpGY32Ou+Q1mwCRgAA2AADIABMAAGNsLAQokob4BWFKkhospIVG80y47WyJQ6He2ZqYjiSJREn/R3SyRNLKJ4Ol9jmfO+6XzOXvaCEraIqiNRmM6Hi9dGLl44B9yAATAABsAAGAAD28XAAooohslasKAUUX6Bifi8DguQIKCsqIp0UN8zUf0iKj2n5ATWiiwAoaJYSvAkEaaOO5Hkf+fPW0lexkBSeUob7G3PM1HKNuUS5n0rIJYiyj2DVohWJ6CMqYB2HY32WcIR+/Ln/GAP2AMMgAEwAAbAABgAA1NlYEFFlHe2cwffiyi/Kp9fLS4TUE54tZbvTs77xkRUR9m0u7ACX1qdLwgsJXhKEeVX/PPT9ZKAknqplffC6oBR0Kk8+4XJgIhyA69cQKL8LfXxWyei4kqIa/XzZxzhwhLnUx3Q/X2c9w/Swh5gAAyAATAABsAAGNgYAwstonIoykjUxgxmi6iN5ZXXb7vzmERE5XV0zzH1iKAyEjVf7c3bgrrBHmAADIABMAAGwAAYAAOTMgARNTK0+fvjD+iRD3jp8QWD7M/36JGPb9Hvp9guiKgFY2SKbCzc+IFtFu+aiD5Fn4IBMAAGwEAPAxBRPcaxHT1ZwY7o0eP8stwd7ijvv0WPXuKVB+vlzTfbNoioHc7GTmcb9d/51yf0IfoQDIABMAAG5pSBXSSi4NBuVhThfDAEBsAAGAADYAAMgAEwAAY6goiaU3ULOHGBAgNgAAyAATAABsAAGAAD88kARBREFMLEYAAMgAEwAAbAABgAA2AADIxgACJqhLFwJ2A+7wSgX9AvYAAMgAEwAAbAABgAA1vJAEQURBTuOoABMAAGwAAYAANgAAyAATAwggGIqBHG2kp1i7JwNwUMgAEwAAbAABgAA2AADMwnA7tIRE3nZbu7DeRXbv5CF9f95/zyafMOxdPL912aDz4aA/lpOn7nF2rlOcbO/AJkXqK9+f6us78i+v7XdEYL5qO/pgflPn18Xr5/dI7W75yko1l9jtI369eM/WPsv7Vpjy5/Rus3j5r8VH1t9Vdo/9nX1ujuu2t09zWbxSqvzG5b2+adUBc/vu/T8bdgm1n31xC7Zy49TA8uPWaOEfd+Qr7GTfldfrNuc5X/C8do6b1DtNeNS/wnV/bB9crkH3bC9XleGYCIGnPRevUGHTx/mZ5onLPn/TV66Z3DO/Ai8A/6IAglFkyWsGFny9rPYG+riOKXBF+6R79r9EnHYunnh+nW0foidPWrh4i++s1899dciajn6Mqda/TNKLHs7T6xiOrpr27/Dbr77g062+rrnv19/M7rxdnXy99suLi+AaHz1nd0fv0uvTJglw3l3cwzv5bIDRjejrvJUo/XqfXT67fo+RWil7+8RY/HdpyhfV8Svcz74+cePRmPX6Vn4v6QJjt/0voeps/fXKOv91vpf0P3fn6I7p21jvl9fMNoo+8nPPXFKq2urtL1JZ3/Kbq+6vfzMff59gK9Ie1euu73ybHVVVr59I0NXjP30qH3lujYC1L+FETU/sv00sUbtEfqW2x37n+y2AjbqY37gg3kC7amwcBCi6gDby/RiYN7wwV/ChfsRRRRztHKBdLTy3erO9PTd0KnE4lyd2g/uNr4U3+Mbn3/UPPubtf5431Oy4YGGXPy/pQiJaaI2q6L36xFVH9/HXnx9oYjUNPnd4v6gMfnne/oleX7zZsYTUYnEFHNc6fgcLibK3e+o6enkNc06/n4Jw/o+U+u0r4vH9C+16UfvYh6/pP0AvUnl1ksiZDyIuqZk3n6XIjJsf4tc/zDi42bbe4mwq/oastmfNPIuN7tPXhC/ddZ5bNYuk6nWBR9cUpdL72ISsLqDbrw7SqtipByIuo6nZL6/OUCrfQIKa7H0tsHVP6qLvsO0YkYheL9U/hP3jYRdYCOLR2jA2IXbO0+h11glwVnYEFFlL/jlaYN6Av2aXr24hoddB91B6sSSJzuNj3FdwzdhVrO0Vt//hPv3A756WNruSNd5qGd7OB063xGRbSCEIp3fW/+Iw3cj+7SxZv/iNGiMtLEziUfH3JSbCdU33Vu3SnXaX6hi9GpKkWUpOu/c17Ws1dE9UwLi/lMkmb0RcA7B31Ry1i+kbeL2vB0Pfmo6XzZMXN6XJjqZ5zbsSC7eZR0Hj8uP6f63oskq9wPb6r6SN7r16j3/PVz9GFon0SidD5VRGugLzYioiRKGseGRFwD85ajn+0bGD9dJ5GiMO3VGkvGjYq+/tfHXF04zyCmKkHC9ZM2xSiyjKU0FdenUWM0u2ZYY67II45bvpbysbv0is4jO+4d58yOwrmrb1Fetm+CvLM2qzZJGb1bL5ZYDHkxJaKpFlFdp/eVIorbaO3zbdd9WH7vFVFdRxwhb03r6xoiquvYqV9qCxgWQ04YBTEVbVSKKK6/2leKKD7P2td1xDctl3qERX5Tk8sREdX4T+7Uf3Cob4os6XP0/67/z9b/pf6/PqTR/7ub/E92gnHpBB3aN9znJQP4DZuBgcVgYAFFVOvPJDi2Ioy6jviCHCMGfSJK/nCqNDkE6QKf72dHi4Xbs6/Kfv87CiXOl0WdXODdbyXwpHxz652dNFXG/45T78ThEOeuclgmm2ZjiyhpD5dpOTNFXbL6axHVl07KsLd9IqrXGYl14Sk09nS/zV7kHF89U03M/FnoKPHhhI8SUXKOiBL5LVsWKbmwUXZzeV9Lzya9dZJ+XP+MroTnYY4un4vfu84LqjyvvkhUEGCmsOuicJP8XP2Ldg3110ZElNilya8TAppdzWVHXTl+ivT5TYjiXGEsiI04JmX/4Nbn58e2McZc3XTdVV9z3q7cQrCUZZppynb43+lmix+vF+NUQf87XYN8PUwR5QRYfs3JbVjmXdSlsL/vn4E26ja7qXwhunTynprSpwVTsqOLRi1zpNsSTPY5wlxrOySiur6bCU0RxXW2bh76tvBUPj8Nz0eaUuRJCaZoJ5/GpbcEk4tGrdCFv4id2uVGG3AUqhJYA//JvSIqlL3hSNSU/pP5Ga8lPUVRbIJt7PvIFWwCmyweA4slotyFWk/h0x0md73UPi1WKoHEF9kQiZKLQJVG5RVEWRRGck7XkbsrVj5LpfPS3915RtkqPz0QTUeFnSu5M6y/uzy0M2Y7Pzp/+d50Qqs8k03MusV2iHP0nXseq3Iwj1yif//0E/1Ufv7vv1XkpKP2MwKTTtWbNF1qlxdH+u4nfy9YCe30d0TtY2LbtDVESmM6X5+IqheiCHWv8jLKi/0ThE8minrSl+JP5cPtq+rrBFyKVE0ytZIfzG9OgyrKSzb1be/jNztWiopq/Hhuk7ApHPgqfeKmrNPg76IuWT1DBKwaN9oOxflmeVYabkMUSKH+WTp9DWnbtzX+3X65qeNElRaCdd46PX/P26z7Y9jWHH162YkiTsvCSKb02YIopbdEVEcssvQUQNPGuk/4Oz/b9+ZlOlLul999U/r236JH+54BNSNCLJSS6Hnj0xU1pc8SUR1F0WWJKBepkvxaNy3zvrCn+Q38J89QRE31P7nX78jtMBEfwgG22X89bAeW5pGBhRJRPrw+QkTpu1iTCJkqTQ51KxLlLtgSZZILo85Lf3fHR4qo6JCE+mhHTn93eWsnZbYiip2+dPc6t1U+DUo7UWU6+7esVvXbP9vHu274IW0ZkEMREEm3ka0XUSrKKP1vbg2RUgkf395KlMT8fB4yJS+bMlfl5dNKdKhzwqaYtjehiLIiS9peVX0rEdXuLxeBerf1MH6r//P9uQDJj7loRrjpUDnp1fgR8X86RHrKKXN6ympRTuyjyfZr8eBsmdVlgrGbCZ9GmVaarJxwXpZOX0P8ccu+rv5yM0e3XefFZWXXrzpvnY+7pqjpizKVsYyCafbSdy+U0nNNWgTZImoWkShXH7dISuumwEB03Amp9mqkflqd+h9kISTPOHE/uEiSPOdkiagRkagQiWk+B+X6nYWWNe3NEFH6P3nWImpa/8lBRPVNZUwMNsahHh/4DvEEBnYMAwslovyFqnVnzLhga/GivzuADSFTpckviL0iqohEZXfCqnyNshuDSjsYcqHO9lUOkXZSvEOYOzF5myRPy0mSY/4ZiVoIuXpkDpLOOzmjLl1553sBIlHjp/NNQ0QpGwdRFIVUQ0T54/5ZqiiorOhRmOIX89NMVnmrelh5VSJqOCI4q0hU4peZLDiuxo/n1jntWgxoW0zlexiblWCQ+ql6tMqbpH5WGm5zOR6zffoa4vvZuj5k16GsjqnufF4ugOq89XXEKiddh3Lmqv2yKp+5yp4lonz0yUeajEhUyE+LsqrMrN2+foPTUvsiUTydr7nMuT2tTlbli6vvhZX2/JQ+Q0SFxSPccSMS5SJZvEhFbJtdbrRFtqy57qOB/+RZi6hp/CdjOt+OcXYjj5FbzSK+wz4bY2ABRRQbwrqolxds/ztOv2MhE59f8ceqKVruLll7alYmjPRAdefVz0TFZ6Q2IaL8cw/aEWEnRP2unMDCSXHOkUrvliwfuzpfkae03Tloed5poHpHSqbmsHMUpyDK+RNs5/WZKCegij/p1Pb2YHULL0j0RyJDxbNDnE8V2TFt5YVRFD2F0HF5xOevirRSttQl5J/VLyuzFmG6vVV9KxE18EB919Gg85nVJ7dx26H36fzx+3S+FP3F+HHposAIQqc8p6xHGAfCurZL+7s1pvIxk9clb6/Pt7gWlPXi35aICs8tpfrm5SbRmcq0xE2vzZ1d77uVB/PFMop2l9cQd70SIZnKz+34V7p0i6cC/5suHVFpsmegwn4nhHhKXymi/O+0+l4povzvNDVQlWPZWe2bzTNR4T+vWhmvfAbK19MJK7dKXymi/O+4gl8potzvcpl0n6e9sISvV1rWXNtp4D/Ziaj0vylR/fif7WzKNxxTmpyDxlR6Pm8a/8lOQFkRNt1GfC/7BL/BxCIxsKAiykOarwYkwig9y5JfjMNCE2HlvmdftaNBciGvVvdzF/SiDD1dIFy0ZaWgrOzNiCguNzgaMrUlOT/hwfhsSk3hpPD5QUjV53snTPbLNuZfnOePFw5OUbcklErHLDik5gIV7YtOn4hyD2j/3LNcMLe97yFu16ftspsXAu5P3fej8vFixE/HO0cfstiIIiqfqidT9tJLbPW5flqejiy5RSrUynrZAhYizOLxc3TFfEFuXkaWf5cf0/lPIqKG+mszIiqfPmpMMy2ddemzivHiGahydb64Qp7iJuQdx43k3bflcrNx6/MrhYkXUmlKYVVGVv80Nsvz/NjVbSvGfiYU62vIaBFVCTWxV1GuviEk9sraxG3X9eZ8bBFlP78k4umf9Xui4rNTnGcQTSqKNfpZqFD/IRHVO724sbAET2VPr/MQW5ZT99T+KI6CaGq9ByqIphTFkmehVF7SL11H1bNP5oIScm7xf3nReM+iu7mZVtYzZ3voNNWzqUUZ+rq8qf9knvGCJc6b/4GKCaQR3rFdRBYWWkQtYoehTfmFqFdEhfdANZcLntV7oub1D6SIRM0fS7N7T9RgW53QKZ1x6yZEzt9gvvPKwrbXqxZi3pat/Ytj914R1TeVj/usIaLmlcP8Rubi9OG82hv1AmNgYGsZgIjadmdiazt84QZY7zMCHXXOKbGXMOc7vvTVb3bPnO65F1H9/TW4qtmGx3IZFVVjshERWrhxtGHbKVuNyMNN382iW5LPoouow/T5m61FUtqLqwhv7dVIxX7Yiq2wBQtgAAzMmgGIqBF//LPuDOS/sQHPjsUjl9qrVZlT9lhcff9rOrOb+n8niCjuj54plry4xN131+jua6enIH5lCqkxvU+4gIiagp3TuHbiiRfLMKYq+uvf4oqoyG5jefMzlx5uvmRXViN9ZGB5c/yHJNZgC9gCDICBWTMAESXOErZTdZZmDS7yx8URDIABMAAGwAAYAANgYLsYgIiCeIJ4AgNgAAyAATAABsAAGAADYGAEAxBRI4y1XUoX5eIuCxgAA2AADIABMAAGwAAYmB8GIKIgonDXAQyAATAABsAAGAADYAAMgIERDEBEjTAW1P/8qH/0BfoCDIABMAAGwAAYAANgYLsYgIiCiMJdBzAABsAAGAADYAAMgAEwAAZGMLCLRJR/c/mzr0Kxj1HscUni9V/o/LK9rPTTy/fp4vov9MFHY2zb826eEQBzWxZ6iXNzWfKj9M36NVq/c5KOjrTVmL6fZtqjy5/R+s2jk12ct2yJ8zG8LmZaP77v0/G3FrN902R4t+YVl2ZvvFagb2n2bv8tepRfP3HpAT22H4xtPUN76dB7S3TsBW/7J965TQfft//Ht75u4AE23/kMQESNcUJfvUEHz1+mJxrn7Hl/jV565/BkjmIjj+0ZVPxull+cEGIxZIkldras/VzfbRVR/LLdvnen7PSX7c6ViHqOrty5Rt+MEsv+IjmxiOrpL/ey3Xdv0NkNjJ0+frdnzE365yHvstqA0HnrOzq/fpde6bHX9EVUfi3h64l8xt1kmdQ+G0j3+i16foXo5S9v0eOFbR7/5AG9zMfkE9L4/ffoySL9k8shH8lz+Wq6/p+8V5WR51/n18uilFHUO8/T1/2Zk2KXM7TvS9Ue166R5bo2b+4lwd3QS9ELu2Z2WLpOq6urtPrFqWTbkP7UF6v+GB+Pad6gC99a6U/R9dVVWvn0DepCnu57yOuNT1eKMkI+Wd5i1wm2Zr2LPF3e1+lUbL+vo2uLlPvtBXojHp+gXJ32hWO09N4h2hv2bV5EDdyM3n+ZXrp4g/boOuB7xW3GN+yzo+2z0CLqwNtLdOLg3tBBA4N/EpAXUUQ5RysXSE8v363uTE/fCZ1OJMq9hPID5bhk/fgY3fr+oeYLLLvOH793duQfU1aGcS5zMq27faaIMsocqtNUjs9aRPX315EXb2/4JbvT53eL+oDH553v6JXl+82bGM0/5AlEVPPcKfDibq40X6q7RfYz2sGi4/lPrtK+Lx/QvtdVPVj0rLQEhhcjz39yJv3hO1ET8gjfn/9SnV+IKCe4svyv0jNadBl11f3TqrcTUVpYuXYQeSFV17uuh7JBTx14/P3wYuMmobv58Su62jz/Kv3WutnFTv7bB5JNjfNZKF1fYnGhxUZHTvS0BMZfLtDK6gpd+EtqW5aeBc63K7Sizs9FVBAzWrgtXafrSyk/3TfWd7veXkRp8eaFoLTNl5vKCaJL1TMv6wAdWzpBh/bZ9WIfSKJQfN7OFVEcUWu3M7eJbQukgV1mwcCCiigfwtZ3YLpORNRpevbiGh10H3XHpBJInO42PcVTENzdFTlHb/357sIU81THtSNd5qGPBadb5zMqohWEkNzxvXjzH+lP6aO7xL8lWlRGmtydaJ3e+BNj8GwnVN91bt0p12l+oYvRqSpFlKTrv3NeDoJeEdUzLSzmM0mahk1iHtVxz1pf1LJ9bkcuasPT9eSjpu1lx8zpcWGqn3Fux4Ls5tEs/x+Xn0usdF4kWeV+eFPVR/Jev0a956+fow+DbSQSpfOpIloDfbEREaW5j+ODoyOBecvRz/YNjJ+uk0hRiLhYY8m4UdHX//qYqwvnGcTU0yVrXD8V7fHRYhlLKQrk06gxml0zrDFX5BHHLf8R87G79IrOIzvu/6wzO0q9XX2L8rJ9E+SdtVm1Scro3XpRwQLDi5Ikipy46BM1hcjK0jsRdY/2OYEW8tQiSguu3vq1HJ12vSsR1fm2+UhbLaK6ztrXKjft7xVRXUdXv+q7YdUQUZ31X53K7DoWFV4MeVEix2oxoscNf3fiJIqgQpw4EXWBLjiB5vPUIioTXBvqrzH11m0p6unKtvZ11O07RCeW9I1isU3YuuPH6ICqv4gonjXjfaA1So84iI+U8pH0bE99jpzLW++raL8q5X1QfKhQhzyP4F+5Y3z+Ddqj/aRy1g8L7qVcFJZ9jt+p72CLrbHFAooovjOzZNzdCo6tGtRuQIuY6RNRchGq0uSdxPnZ4sdfYNLFyv+OaTlfFmG6LhOHxL2zk6bK+N9x6p04HOLcVQ7LZM8y2SJK2s9lWs5MURexY7hoHr8jEbC+dFKGve0TUf1/6pLfb+jezw/TraPye3pb/4ehhHrW/kY5LHSU+HDCR4kouTCKKJHfsmWRkgsbVY7L+1p6Numtk/Tj+md0JTwPc3T5XPzeBUGV59UXiQoCzBR2SRhKfq7+RbuG+msjIkrs0uTXCQHNbiHuy/FTpM9vQhTnSn8HsRHHpOwf3Pr8/Ng2xpirm6676mvO25VbCJayTDNN2Q7/W4SnF1Es0CRvP37TNcjXwxRRToDl15zchj6vlHdRl8L+XXY9K9pftpV/B7HjpuVpkcPHQgTn5aaQUuKjFEUx36v0jESFVP6W0BE2J9rG/EM9pYxMMKn2u7ZwVEzVWdkjE4Bqf19dhkRU13sTpCWifJ05YrK0lDv8ri5B7PB0Ni1y+Jj7LdPzrDaoaFQliiRfThOEVspfixplU6uM1j7JX+oZxZyddxJ8lmAyzplAUOQzcXw75EZt7nvIf1S/iPJs1GkyZnqm87mylTDydZGyRYTlv5PPFPphSDi2+gP71c3SDTING5o2XCwR1TvAjMHvxEsYtJVA4kGt75R01FVpchhbIqq8eLiLjs5Lf3egGmU3ADYdFXYs5M6w/u7y0M6Y7fxkF8VQbtMJrfJMNjHrFtshztF37nmsysE8con+/dNP9FP5+b//zkDmRSUePZ7uJqe6TzpVb9J0qV1eHOm7bfy9YCW00/9R2MdSXSVvQ6Q0pvP1iajmghNVXkZ5sX+C8MlEUU/6UvypfLidVX2dgEuRqkmmVvID7s3pREV5pW37+M2OlaKiGj+e2yRsREiEPqzSS99uYFvUJatniIBV40bboTi/tIn7baXhNkSBFOqdpdPXEH88r5vf1xr/br/c1HGiSgvBOm+dnr/nbdb9MWxjJ2aiSLpKz6wUU/o63ifPEKmpeWLXIGae4WehYj65OGOB4qbSTVFE9dXbFGhRdNkiKs9v2G6Olf036O6bl+mI2KLc9k7pO0OPfUz02z+3y9p78AQtFVPTWFzEqW9OFMm0t5CP2xeehzKmvHlhdN09C5WmyHX+mSiXngWKj3RNU0S1620IokxoWSLKR9XEDpad6rFtT/Nz/0dys9b1nxcvXqzUPlKdvk6Tld0UUbocYUDnVfs8LX+q61o3yiVfbLM+Kccpfmc+5GZttVAiyl9cWuFtPWDDINMDfhIhU6XJB2tr0NcXokKQVfnWF5RWR2sHI6bRjpz+7gaPdlJmK6LYsUp3r3Nb5dOgtBNVprN/uwjUpb4/ZY4wPUSTPO80FAGJdt3AxceLKBVl7M3DECmV8PH2qERJzNfnIVPysilzVV4+rUSHOidsiml7E4ooK7Kk7VbVtxJR7f5yEah31+jrTazuZTn5sX5qjFROujrm04v4Px0iPeWUOT1l1WY3lhv7zE5Xje2sLhOM3Uz42GWY0aqsnHBelpe+hvjjln1d/eVmjm6rKwwG7wAAIABJREFUzovLioKK86rz1vm4a4qavihTGcsomG1jLyjSogsdseDJnnNS9XTRmkpk+XOqZ6eiaAmCigXW1ERUf71NETWDSJSzKQupd1s3M4ai+l5ItRYCkv/v9IwUCwr9XJMXIJkYiv3lj60Wz0356YDGIhMqUsSLTLBAmZ6I6qu3LaImj0SF6Y+F2Cx5d7Y0njWrfRHtF+nvflz3pw/XhtgH8uiDRJP0ccun0eXVx1v+VBRRAzYobYLfuj/wfVo8LJSI8kZp3aXQAzYApMWL/u4uCvWgnmYkyl2cJLQ9Sdn6QqW+awdDoMj2VQ6RdlK8Q5g7MfbgspwkKc9yfPiYq0fmIOm8kzPq0pV3vhcgEuUjVtYfiraD/j4NEaXyC6IoCqmGiPLH/bNUUVBZ0aMwxS/mpzhsTTsURoZF1HBEcFaRqMQvM1kI+mr8eG6d067FgLbFVL6HsVkJBqmfqkervEnqZ6XhNpfjMdunryGeN+v6kF2HsjqmuvN5uQCq89bXEascYWxw64SORJnUVk2Ny/PwUSktuvi4KVq0iHJT6B7Qvk/U6nxO1JRRLzVWM/sU+wfqbdXHCUDXLisS5dvVEo+5DVJdBqfT9kaieDpfe5lzczofCx1ZoU5v49S4VDdXZzV9L7XBFi1udb4YuWLRc50uqNX5nKiJx4ty+vqKj/XW26qPjz75SJP/ngnFEG3L9vVO5/NCSy8oIfaoRZH2c2ofqU5fp5G83VbfmM7sxOXo56/Ypnqfroe3tymiemcbjeynrH44N+tH2GbiaNUCiigeDNbDquXg97/75gZXU7TcBaI9NSsTRhpCd56+gOiLRxGVcufVF5Qm4M4J0o4IOyHqd+UEFk6Kc45Ueid+xq7OV+Qpba/qpi9U3pGSqTnsHMUpiHL+BNt5fSbKCSgRyRO0Q/rXLbwg0R+JDBXPDnHaSpSYZXhhFEVPIaJcHvH5qyKtlC11Cfln9cvKrEWYtMmsbxWJGnowvaNBJy6rj2YtCHorKhLO8Q7/fTpfiv5i/OSCPwid8pyyHmEcCOvaLu3v1pjKx0xel7y9Pt/iWlDWi39bIio8t5Tqm5ebRGcq0xI33qbfUbUYBpfr7HrfrTyYHy/aXV5D3PVKhGQqP7fjX+nSLZ4K/G+6dESlUZGhmN4JlIa4aQgfS7Rkz1px+07eo+e/fKCWOPdiJl9WfcLV+QbqXdbH/Y4RtFJEWfVQNrIYCftm9UyUE1BqGW7pmxQZUvVzAqWY0hfq59JXkShLtOjpfD5vPnflW7XEeRAuMoXO1WnC1fn6613Wx/9ejYKtFFH+t7W8e3NhCRZYhj25DaUoyn0WyyeqZ1G4/7ZsSqDqn0wY6f1hYQr1n5iXXfs8lYgKAsoSh8IMtrnNYY/Z22NBRZQ3XP5gpb9A1KvKJCO7i0NYZe/ZV+tBHS9CcSW+MspQlKEvNEFISflRvPEfwCYiUW6QBEdDprYk50ecFe3IFE4Klx+EVH2+d8Jkv2xj/sV5/njh4BR1S0KpdMyCQ2ouUJH6qLwo9Iko96Dzz33L7nbU/zB0u9yyHtlv7k/d9+FPPkvT3OfFiJ+Od44+ZLERRVQ+VU+m7KWX2Opz/bQ8HVly0SK1sl62gIUIs3j8HF0xX5Cbl5Hl3+XHdP6V6DNE1FB/bUZE5dNHjWmmpbMu/VMxXjwDVa7OZ71nLeQdx43k3bflcg3RVwoTL6TSlMKqjKz+aWyW5/mxq9tWjP1MKNbXkNEiqhJqMtaKcvUNIbFX1ia9wIXkYYsoe+qeiIx/Gu9TssVVKVrcuM4iUVyP8GxVFuUKAqbvmStpo9r21/uMj4zFPDnCpp/lKsssnuVS5Qxdn4ZEVP+06MbCEuzwG9POus6Liyz64uoqIiOICx2hqgQU90MpWgIjejof5yvPVukol+yTMvSxpt2G6h1Ek+TJ2yzful2ZkKvKrZ99yv0eGRN+64RL9F/W6vdeaj/l/GXaY76c198ENn0Zrh///8Uy8pvO2sc6mC2eVftbuYjiG+NY4nxojOJ4zvtW2GOhRdRWGBBlbD202ua9Iiq8B+rBpccaodnhKWS6rB3/vYhEzV97fH+0+mtzImqAUyd0tIgI6RtiZv5sN9C+yvna7vS1EPM2be3f7vqi/F4R1TuVj23XEFFzx+UO72cXrTFWOYSdGz7ADu9v9Ou29ytEFCDcdgg35ZD++R498vEt+n2rH92fu72EOd85pa9+s7Pb32q3tX/uRVRHXU9/dUOrg1ltnmhfGRVVf6wQUTMZH276bhbdEptDRG3qejgR72LrMdvD9PmbrcVd2ovCxLYMXadnVu8xbUTa2F/oj5lc92DfxRtjEFG4WOz4iwUvc/7IJaJHPrhqt8V6fwk769//ms7spv7fCSKK+8Pqr9BPvLgErw5297XTdl+P6k+ZQmpM75N8IKKmYOf0x+nEEy+WYUxV9A7G7hNRfhVAtdBFc2pesuNWOmNxzDWWNz9z6WFqRY+7/bfoUb42966kuj3t2qgN3aITejpe9t1+XmujZeG8ncUG+mv39RdElDhL2E7VWcLFZPddTNDn6HMwAAbAABgAA2BgtzAAEQXxBPEEBsAAGAADYAAMgAEwAAbAwAgGIKJGGGu3KGu0E3eRwAAYAANgAAyAATAABsBAmwGIKIgo3HUAA2AADIABMAAGwAAYAANgYAQDEFEjjAU13lbjsA1sAwbAABgAA2AADIABMLBbGICIgojCXQcwAAbAABgAA2AADIABMAAGRjCwi0TUYXrq/Bo9+yruEIy5QxCXJF7/hc4v28tKP718ny6u/0IffDTGtj3v5hkBMLdloZc4N5clP0rfrF+j9Tsn6ehIW43p+2mmPbr8Ga3fPDrZxXnLljgfw+tipvXj+z4df2sx2zdNhpHXnDHyh8v0A7/u4N3b9PkfrLrx+6t+RVcb18jB/43GeeDAsvUC7SteWPzEO7fp4Pu27wMWFqjfNzjeIaLGGO7VG3Tw/GV6onHOnvfX6KV3Dk/mKDby2J5Bye9m+cUJIRZDllhiZ8vaz/XdVhHFL3G8dI9+17Jnz8tbd8TLdudKRD1HV+5co29GiWV/kZ1YRPX0l3vZ7rs36Gyrr3v29/G7PWNu0j8feZfVBoTOW9/R+fW79MqAXS6ubyDvZp75tYSvJ/IZd5NlUvtsIN3rt+h5fhfTl7fo8aIdj3/ygF7W72kKafz+e/Rkkd6944nTSJ7L6l11J+9VZeT51/n1sihlFPV2eTb3naF9X9rvoHr+kzPxvyqv1wPa9/o4u8q7rp45qc+7Ss9oW5Y2Z/sUx3Wdem2h+6HnJdz8DivqfR/gGXrsY6Lf/lnXe9Lvb9CFb1dpdXWFLvylOOcvF2gle39USLN03Uz/xqcrtLrK75iSPPX7pk7R9bIMlw+X3Shf26f6LmUU9XZ56nI76tQ+X0cpU22/vUBvSBlZvVbp+lJhF0nX2sr5X5yKbHbRJqpMZyvJm+2jj63Sqq5Tq6zG/gNvL9GJg3tj+ZsXUQM38Pdfppcu3qA9jfpMPA5wfuyzrbTZQouofDAMgDwJgIsoopyjlQukp5fvVnemp++ETicS9fvjD9ov2e0eo1vfP9R+EWQ4fu+sXIyntGVOpnXnyhRRU6rnJMxnaWYtovr768iLtzf8kt3p87tFfcDj88539Mry/eZNjOYfxgQiqnlu1u8ba6u7udJ8qe7G8pxGfVkwPP/JVdr3ZSEWnFPfEjZejGROvhM1IY/w/fkv1fmFiPJCQx3vrtIzWnQN2LxV734RpezcaF95vvu9ouup8jDryGLpHj3J+Wft8SIqCasg6ETwlfUJIjGzsVleWZ/T9HXPzRW+WdZ8GXDXEf+HPHo8CUrP2F469N4JOrSvLEv9ZqH07QU69ekKrXz6hnLgvFPfEhDuZb2ZSNDpvcBZ+XZFCZBcRHkxowXQG3ThCyVkhmzWqrcSTHGcWfs6XV9ljzKt+63rqdI26si2ub7E+WsxF2yibOxfeCxpyvoEkdgUUgfo2FKrb/nYMTqg6rdzRdQEDKt2xj7HPjWWh5ldUBHF8CzR0nuHaG8EQkTUaXr24hoddB+l/iuBxOlu01P7O+rcnQI5R2/9+W6QxTzVce1Il3noY8Hp1vmMimgFISR3fC/e/EeC4KO7xL8lWlRGmti5zNJHe+Xw2E6ovuvcuput0/xCF6NTVYooSdd/57wc6L0iqmdaWMxnkjQNm8Q8quOetb6oZfvcjlzUhqfryUdN28uOmdPjwlQ/49yOBdnNo1n+Py4/l1jpvEiyyv3wpqqP5L1+jXrPXz9HHwbbSCRK51NFtAb6YiMiSnMfxwdHR8IYsRz9bN/A+Ok6iRSFiIsee8KFcaOir//1MVcXzjOIqaclT9ly/VS0x0eLZSylKJBPo8Zods2wxlyRRxy3fF3gY3fpFZ1HdtxfOzI7ZvUtynNtkH0T5J21WbVJyujdekeeHXsvSpLz7EROJgLya2BXOP1ZeicA7tE+J9BCnpxeBIMWXL31K8qMadv1LkUQ82PtK+vvOWOhU4jJLpWlWWx+j+0MYirWuRRR3Da1r7Cny9/aF/Nr2aZfRHUuut2e1meLqI66F47R0tISHXvBLteJGRZDQZTk0Rhx8I1zXZQqiQuXT3T4vQC4/qkXaD5PLaJKwWDkP2CvUfUuhZHL26pDqHcReWKxkwvMvvqmdnoxJWlrESXRKZ+3VR9rX0edm6qXR5o013sPnqCltw+o/8SORETxTCPvN+rHQsSvlLqm9JyvPkfO5a3377QvmvI+KH6ns3WRJpsJxcdu0B7tW2bHhxnWbcf31IdjbLGAIorvJCxVA6HrgmOrAHWAi5jpE1FyUarS5EZvT+fzAyE9j+V/R6HE+bII03WZOLzrnZ00Vcb/jlPvxOEQ565yWCZ7lskWUdJ+LtNyZoq6iB3DxeH4HYmA9aWTMuxtn4gaugPpBwrPm3+Ybh218x8zmMq0/gKqhHrW/kZ5LHSU+HDCR4koKUNEifyWLYuUXNioclze19KzSW+dpB/XP6Mr4XmYo8vn4vcuCKo8r75IVBBgprBLwlDyc/Uv2jXUXxsRUWKXJr9OCGh2C3Ffjp8ifX4TojhX+juIjTgmZf/g1ufnx7YxxlzddN1VX3PerlwRJ8UxKdtMU7bD/xbh6UUUCzTJ24/fdA3yZZkiygmw/JqT29DnlfIu6lLYv8uuZ402Slt5G8SOm5YXnf9wnnPgqYim6Dy9uHCRklIUxXyv0jMinFT+pqjR9Rr6HvPvyIkhKaMhmMzyLIGi81V1yASi2i/jSW85rY8eleJLCaaYh7Jhsz6lqNN9YH0fEFEDMw6aIorr3HS6tWhIzr+3i3fg/fQ8q74duUiKi0aVzn7K99QXIrRU/qaoscvQfZS+p/w7F1GSMvKpezG9WV5ZZy5f1TH2dUe5QByoJ5cVxGQUei4vS0T12ZDLMc4ZEMVdZ0eo5OZ27q/J/3q/iPJ2rNNE+3L7mtP5/HmxXPFhxU/sRGBJXUo/M9i7yfBAf6h+zOqL/ZnIXiwR1QuLAbITLwHASiAxkCESJdBUaXIIWyLKDcLyDoHOS393ZRllSx2KremosGMhd4b1d3eudsZs58caME0ntMoz2cSsW6y/OEffueexKgfzyCX6908/0U/l5//+OwOYHw6up2JwHfzUsOGpepOmS+3y4kjfOeLvBSuhnf4CbB+r7WyIlMZ0vj4R1VxwosrLKC/2TxA+mSjqSV+KP5UPt7OqrxNwKVI1SX+dfW2NfnhxY88c9vGbHStFRTV+PLdJ2IiQCHxU6RM3dX8PHCvqktUzRMCqcaPtXpxvlm+l4TZEgRTqmKXT1xB/PK+b39ca/26/3NRxokoLwTpvnZ6/523W/TFgTxEcMdrETn7psHvH3z+rY0xpC6LjmeVCbCkxwqLCTWGboohyoqhRb0swWfvMSJSqo+YjL6/PrrkN8/MsEdVRFF2WiHKRqrJP+srnY4fp8zfX6GueNaL5V997b9Dwc7Uf36Lfq/R5PsaNWRdNStEmK+LihFJ4Vqee2udFx/UvVqJw8GUqkcOiIgqtIHZMUdNud96OzkfN1FS5rN5W3tY+azpfYY9YLp8fo2z99czqkuVnCKIuCLRon/r5K52fizA1p/CFerHIymYv+f0SiYptCuLF3xSv/co6fZ0m5dUjotgvLG+mZ4Kr9hNbPqgXiFZwob9Psno2x8fuzmOhRJQfKK1QrQGyBnISIVOlyeFpAVwPqo46nZf+7kCtB0cLZu1gxDTakdPfXd7aSZmtiGLHKt29zm2VT4PSTlSZzv7tIlCX+h4I5gjTQzQsojrq/YPd5IXDiygVZezNzxAplfDx9qhESczX5yFT8rIpc1VePq1EhzonbIppexOKKCuyFHmcSES1+8tFoN7td5J0WdZ3y8mP6dQYqZx0dcynF/F/OkR6yilzesqqzW4sN/aZna4a21ldJhi7mfCxyzCjVVk54bwsL30N8cct+7r6y80c3VadF5cVBRXnVeet83HXFDV9UaYyllEw28ZlpEQ59Lp+4buLxlQiy5/zcvnMkBJRLtrFgkcJFFPUGGVupN5W3tY+U0Tpeqv6RKGj9pl1U210x7P8LBE1i0gUc+OF1N3Gs1FugYmvftMUWZ1boKh1Qy6IKOWE55GSEMVpiQUnROppbS6PcsGIEEHxoovFAws1FeUxRU0Yo0N9lQmPcI4WOVbe1j5LROk6qnpUdlLHcp5UG10aJSatqFI3JhIVHu9Q/ZeXzbbwaaypm7X/pn1J/d3btD+90VfaD9X2qfzCUnDVfmLLB40iqtcGRt10ffDdvH4slIjyA8O4a+Q6v4Z9tJCxoFZgtQB2g6qIRGX7qnzrwVEPeg+8djAkTbavcoi0k+IdwtyJsQeS5SRJeZbjw8dcPTIHSeednFGXrrzzvQCRKOahupOkeEn2E7tMQ0RJXjydi6frqdX0GiLKCy3/LFUUVJbwCVP8MmEm7anyVvWw8pqjSFTil5ksBH01fjy3zmnXYkDsMLVtGJuVYJD6qXq0ypykflYabnM5HrN9+hri+9m6PmTXoayOqe58Xi6A6rz1dcQqpx5HOXvxuHPwjZXq1NS4mNbV1xIBjeeNMvHAQuEB7ftEPRPloi5jIyyhHUP1LoVMFXEL+bg6lNG1PJLk21+Lzdwuyb5eaNY29YtJGPYLbYmRukKMOvFX7GuVnfbzdL7WMue+rn03yvqmhNvT+byD71fG06vCqalxGe/a4U+20yvfpbZo8eCjLSufXkir87kITR11Seer/Is6yBS3Zr2z6E/IR4usmB8LnrIOeb2lPjoaJPvMrRNr2pbhu4s0+bzzZ6t8HZrPRFl26pvO52Yx5QtKSD1rUaT9s9qvrNPXaSRvt+0TUWUkin3FuE/Xw/eX6YP2ztDq4wXHsn6K/Od2WUARxQ3sW1hCDODBjvNNMzj9sWqKloO9PTUrE0ba4O48/TAiw69+b0JE+TvJ2hFhJ0T9rpzAwklxzpFK78TP2NX5ijyl7c5By/NOUHpHSqbmsHMUpyDK+RNs+/4A+/44Uz1m80yUE1CFcE5lCoP11i28INEfiQwVzw5xPu1IlM7TC6Moegqh4/KIz18VaaVsqUvoi6x+Wf/UIky3t6pvJaKGI4KbeSaq7dB7e/nj9+l8KfqL8ePSRYERhE55TmYXeTZJnv/T/dP33RpT+ZjJ62LlVVwLynrxb0tEheeWZGxK1Dj9rutmiZtemzu73ncrD+aLZRR5l9cQd70SIWm1mff9lS7d4qnA/6ZLR1QaQ2z4Z6Qa4qYhfMwoTyai/HNLz3/5IC0sERZriAtNuL6YcHW+oXq7snUbDPHC5ZkiKkTWlJA022ex01iAwgkrN/WwrIf/HVfwK+vjfoepkGZ5qi+z4zN6Jio4n3V0ooyacL0sR1/qqx1+2dd4BimLRHHaU3T92xVaURErFib581aTrs43VG9fzzT1sNWmMp1vk4+spSmOtkhU7Vd9aEasYhSsrIf/naYJlvXxv/1UyKK8hqDIV3LOzylFUe7nWX5kPfPE+QPxWaY8f76+Zv5gtIvfH33U8ExU+j2BiGoyXNYBv7W/Mub7goooD0Q+MEQYpWdZEow+vY8c+OPPvloDyoZ1AyiuxCcP9AmARRl60AQhJSu0ZGVvRkTxgAuOhkxtSc5OR+7B62xKTeGk8PlBSNXneydM9ss25l+c548XDk5RtySUcodQHLWx76zpE1Edr/bW87JFN1AGVoQbM5hiWu5P3ffxoiic9G29GPHT8c7Rhyw2oojKp+rJlL30Elt9rp+WpyNLbpEKtbJetoCFCLN4/BxdMV+Qm5eR5d/lx3T+k4ioof7ajIhKfDVW0SuddemzivHiGahydT7rPWsh7zhuJO++LZebjVvPTClMvJBKUwqrMrL6p7FZnufHrm5bMfYzoVhfQ0aLqEqoyZgoytU3hMReWZv0AheShy2i7ClqMr3sn8b7lLQwkbwniURx2iAYlDjpREjFdyOVUaFURryWdK0ph1JvtRJgzFcWeijyK0WL2DOUEd/ZlNW5yEOdky3SoffHcoINWvUKoimWa0yd1HZofx8QURtanY9vxDaWwTajM2kRhTPunU95VCWPogSbRpGgbewFQhIyIYqlRBTbwQspKaMdActsNlBvtxJgiODEaJWLBOn68fdStKTjXkhJvZSg0nxU3+s2+3pLOUE06XdBZfUKokkdN+0dyy0XkCh/p/ZwPXKfb61+V6j27c5fpj3my3m9IDL9P66Xu4kvvqm+UZ+fl/sVtY+aR6J6GI62yNua8YI05vS90kYLLaLKxuL34g2YXhG1Xe+JmteLTxGJmr/xMLv3RA221QkdLSLCWGmImcH85pWBualXLcS8TVv7F+/aBYam1af9ImpoRgL/h9iLE02rfshnnlm3ljWf5/qibvM1niCi5sapmC8wdsxAHVpZyd2FtJcw5z9X6nvYeNHYmHsR1ZF/p4vdX93+G3T3zct0ZOr9UkZF1ViEiJrobtzY64WbvptFt8TmEFFjbbnr0/dcF9yCEt//ms40rxln6LGP+xYoEi6x3fWcNRkCG7uZDYgoDIyZOElbOah4mfNHLhE98sFVuy3WlD0WV71/rgt4YdwJIorHo9VfYZzyMud3312ju6+dtvt61HgOzzSpl+9W3EJETcHOaSw58cT2NqYqetvvPhHVWpyhucz6KMaT7Su2h/JpLWgRpuf5d0NtIv+h8oeO/+Ey/cDXgubKnfy8a/slu/F/o3d5821s31D7y+PlVDw1vY2n5/VPcZttO/PphzLdT7aTTvubbR1Hj4/S/vg91f+KndIfEFEAf1eCv1MGKOqJP04wAAbAABgAA2AADMwfAxBREFEQUWAADIABMAAGwAAYAANgAAyMYAAiaoSxcBdg/u4CoE/QJ2AADIABMAAGwAAYAANbzQBEFEQU7jqAATAABsAAGAADYAAMgAEwMIIBiKgRxtpqhYvycFcFDIABMAAGwAAYAANgAAzMHwMQURBRuOsABsAAGAADYAAMgAEwAAbAwAgGdpGIOkxPnV+jZ1+dPyU7z3cX4pLE67/Q+WV7Wemnl+/TxfVf6IOPxti25908IwBm28WlahdxiXNzWfKj9M36NVq/c5KOjrTVdrF2dPkzWr95dLKL85YtcT6G18VM68f3fTr+1mK2b7t4R7m7m6ehVzHw+6seXHrMvh7uv0WP8is7Lj2gx/bvbjtiHO2Q/t93iE4sHaMDwR954p3bdPB9219ctD6FiBrjhL56gw6ev0xPNM7Z8/4avfTOYfvC2DhnPoDid7P84oQQiyFLLLGzZe3n+m+riOKX7V66R79r2Xenv2x3rkTUc3TlzjX6ZpRY9n8CE4uonv5yL9t99wadbfV1z/4+fudjDLb+LOVdVhsQOm99R+fX79IrA3a5uL6BvJt55tcSvp7IZ9xNlpY9prBf3n/05S16vGjH4588IP9+JvLbkMbvv0dPFundO544jeS5rN5Vd/IevVyUkedf59fLopRh5dncd4b2fRnaEt7vJO3T73nK6/WA9r0+zs7yrqtnTurzrtIzRZmZPdg+xXFdp15bhH6QcmM+Yn8jb59G27yon5zbdZTbg+033iZdd5g+f3ONvjaFEL/D6iG6d1bbq/g+9CL5gsXMXkvXid8NtfrFqcofqd7Z5NK8QRe+tdKfouvyjqmQp37f1BufrhRlhHzkHVVG+Vk9yzaY9fZ56nK7Tu/zdXTtlXLD9vqS2LSo17cX6I2y7N7fcv4KXfiL5NlRJ/VV5ep6OvuoY1zHVCeVT7Psum1yvpW3s4FuW1E/OZf7oOJgdePv6zrw9hKdOLg3srZ5ETUQ9Nh/mV66eIP2NO02iW2nk2ahRVTesQOdMklnLKKIco5WLpCeXr5b3ZmevhM6nUjU748/aL9kt3uMbn3/UPuOXzje+0c2CRdlGuZkWndhTBE1ncHf+2dWtsn9nrWI6u+vIy/e3vBLdqfP7xb1AY/PO9/RK8v3mzcxmv04gYhqnmv2/7g2u5srzZfqjstrmvVkB/n5T67Svi8Lx9g53trJ1nX0YiRz8p2oCXmE789/qc4vRJR3+NXx7io9oxz3oTa26u0c/qaIUm1otK883/1e0fVUeZhcsBi5R09y/ll7vEhJwioIOqlrWZ8gEjMbm+X5+pT1tu1n9JvLs6yb/y1lV3m7uha89NRN6sLXrB9ebNxYdTeM2i8D7rqr9FvrBuELx2jp7QPRYZWy9JYd5OtL7IDnjrFzvLWTrdvgXtabi4QsPTvk367QijrfHY9CKTj88bcXGdpx13W0vtv11oJJWLT2dZTVN7atTBsEka5nTCv5F1u2zbcX6NSnK/lLi51IUTYOLzwWIVXVJ4iayWxS1ruoU6yzt3uVZ1k39zv1rxNRygaurgUvqY8O0LGlE3Ron1UHPpaiUHzOzhVRe+nQe612Wm3vaEFFFBs2eBnvAAAYIElEQVRiiZbeO0R7I2giok7TsxfX6KD7KCVbCSROd5ue4rtITvXKOXrrz3fAxDzVce1Il3noY8Hp1vmMimgFISR3fC/e/Ee6wH50l/i3RIvKSBM7l1n6aK8cGNsJ1XedW3ezdZpf6GJ0qkoRJen675ynQe3r1yuieqaFxXwmSdOwScyjOu5Z64tats/tyEVteLqefNS0veyYOT0uTPUzzu1YkN08muX/4/JziZXOiySr3A9vqvpI3uvXqPf89XP0YbCNRKJ0PlVEa6AvNiKiNPdxfHB0JIwRy9HP9g2Mn66TSFGIuOixJ1wYNyr6+l8fc3XhPIOYelrylC3XT0V7fLRYxlKKAvk0aoxm1wxrzBV5xHHL446P3aVXdB7ZcT82Mztm9S3Kc22QfRPknbVZtUnK6N16p5ode3aUxWlmmzuRk4mA/BrYFU5/lt4JgHu0T+fJ6UUwaMHVW7+izJi2Xe/K4ZdIipQteRT195yxeCjFQSpLs9j8HtvJeWnxVQoVbpvaZ9XH2if1z7YtcVTaz07nbFb2dWxHiERl9rPzadok1LVXRHUdXf2q7yZfQ0R1ln+j281OtXeWvSiRY8NOee5YF845O+HfXqALTqD5PLWIqgRD1l9Sh77tmHrbbTHrEOqdRZ6c2FHiZ6CusZ1BTMW8SqHC+ah9Vn2sfSZHro5J9JhpXL2LfnL7vH1KYcX9KwIv72vuFyufjjo3VS+PNOm67D14ohL1IqJ4dpb3tfWjNOKLJxYkPeerz5Fzeet9Yu2/p7wPiq/u2l6kyWaP8bEbtEf749nxjjq+SbG0RMdeSPXT7S2/L6CIYlW8VHUqh9b5mShtbNdZImb6RJTrmI66Kk1u5PZ0Pt+p6Xks/zsKJc6XRZiuy8ShSu/spKky/neceicOhzh3lcMy2bNMtoiS9nOZljNT1EXsGEA/fkciYH3ppAx72yei+v+gJD+eVvEw3Toqv6e39RcDJdSz9jfKYaGjxIcTPkpEyQAWUSK/ZcsiJRc2qhyX97X0bNJbJ+nH9c/oSnge5ujyufi9C4Iqz6svEhUEmCnskjCU/Fz9i3YN9ddGRJTYpcmvEwKa3ULcl+OnSJ/fhCjOlf4OYiOOSdk/uPX5+bFtjDFXN1131dectytXxElxTMo205Tt8L9FeHoRxQJN8vbjN12DfFmmiHICLL/m5Db0eaW8i7oU9u+y61mjjdJW3gax46blKafZceIceCqiKTpP5UiXoijme5WeEedb5W8JHWFzom3MvyMn5qSMhmAyy3Pt0yKnsIeyUyYQ1X6rrpzWi1FvnxR5UoIp5qFs2KxPKep0H6Tvro0rUnban9dRlRfr4AWzFtDuHNWntf3sfPKy6joMiaiu98ZRS0T5cnimzVIRAXD1UaIhOv+h7e63TM9T9ojtUI575exLvpwmRDBS/raoiflaZZX7JP8uRJRilMTK29pnR6JSHXX/NARDWSf3WwuSJPSircvoTZ8NOT8lsvrt48tdDYK4ndZqS1HP0C7dpxOJqEFBYUeoJCCQ+7jiC/WLKN/OOk3W/uZ0Pn9eLFf8fvGtOxFYUpfSNw+MDAhHXZfFElG9DTc6xYmXYMxKILFxQyRKBlaVRg9Kr6BT56VjDqhS7eq89HdXllG21KHYmo4KOxZyZ1h/d+dqZ8x2fjQg8r3phFZ5pnabdYv1F+foO/c8VuVgHrlE//7pJ/qp/Pzff6vIiV9U4tHjZ7J9vs5+atjwVL1J06V22XdKClZCO/3FxD4mtk1bQ6Q0pvP1iajmghNVXkZ5sX+C8MlEUU/6UvypfLh9VX2dgEuRqm6CqZX8sHZzakxRXrKp77c+frNjpaioxo/nNgkbERKBjyp94qas0+Dvoi5ZPUMErBo32g7F+WZ5VhpuQxRIof5ZOn0Nadu3Nf7dfrmp40SVFoJ13jo9f8/brPtj2NbOOY4RCHbyS4fdO/718zMh7yBmnlkuxJYSOSwqnJCYoojqq3ft8FuRlCC+skhRLciEkby8PrvmNszPs0SUEjCWiHKRqrJPesp3ds+fX5M2+K0lfvy+JPYk/9SW0qbud2k7PdZa3/ffoLtvXqYjreO9U/rO0GMfE/32z1K/euuiAMU0Kx1t6JxDX0Rc3L5V/8yUmpondvOi47p7FiqLZESRw869j5AkgWKLGslzkm273lbe1j5bRGX5xn7w52fti8cKOxc2zPIzBVESMFq0RBsU+cX9jfJdHuG5Koki5ecYIqpVRuzD8ExUFKrht+LBYisvN0Rtshlf3nY6suTP0WKl9sXr9HWarOyWiGJfugxAZGlr37od/GgFZHI+FkpE+U5vhR2NTtHGnUTIVGlyY7Y6owakiGpV+dYdnQGkBpt2MGIa7cjp7+487aTMVkSx05fuXue2yqdBaSeqTGf/dhGoS31/MBM8uBvsOBQBiXZVdp90nxdRKsrYm4chUirh4+1RiZKYr89DpuRlU+aqvHxaiQ51TtgU0/YmFFFWZEnbqKpvJaLa/eUiUO+2HtC2+dBl8/dcgBTnqDFSOenqmM9TxP/pEOkpp8zpKatFObGPJttfje2sLhOM3Uz4NMq00mTlhPOydPoa4o9b9nX1l5s5uu06Ly4rCirOq85b5+OuKWr6okxlLKNgZf/737XznKIotX1cNKYSWWHaX+lQKxHlol0s1KYmovrrXTr83FZrXzkd0dlE11v1UZ9dMtuqNtb5WSJKiRpLRLn6jBBRsc4+35fLfulUeTGtEnJqn45SetGkF+QoInj6vKHvLKTebd0AGpoJ4YVUa/Ek8XnSM1LJgff91CcW/LHVMpISpnVVi1IoB5yjKezQT09E9dXbEkzWPltEpTrqMV6Wp4/l36vzCztU9nMCRolMJUxcn5jCKy8zG2PCl8u3vfhHLgjt9um2sBjMFuPI6hmmjBYCPa+XT2NNe6t9Xu1/6+++3f3pDdto313sw9vKl5bHcXTkKb+p3fLbuy6IqF4bLOQzUS31WHdcZvDK+IaQqdLkndvqDAdIEYnK9lX5GmVrUNR37WAI4Nm+yiHSTop3CHMnJm+T5Gk5SXLMcnz4mKtH5iDpvJMz6tKVd74XIBLFPFR3RVTfJfuJXaYhoiQvns7F0/XUanoNEeWFln+WKgoqK3oUpvhlwkzaU+Wt6mHlVYmo4YjgrCJRiV9mshD01fjx3DqnXYsBscPUtmFsVoJB6qfq0SpzkvpZabjN5XjM9ulriO9n6/qQXYeyOqa683m5AKrz1tcRq5x6HOXsxeM6aqFXhVNT42JaV19LBDQESiZG2HF/QPs+Uc9EOcGwEXEgU+60Q19EXkohIyIqRtyCPSzRYkZ+vPCoIzW1Xb3QrOvmzzXsF/ogRuoK0bPhiA/3lynAbBHlyrHsE1gwRWjGcG2LnB1/fHAKcm8kiqfztZc5N6fzOQe9cI45iqEiDlk9lcOf9tsCxU1Di442O+nX6YJanc855fH4ZPaJZQ7UO4v+uH7wdcyFgy2i8nqHerUiNVUf+3IyseGiQuFZJUMQOaEShKn7XthkM3ay8rOfZbLto+3o6tHiQuzQN52vWNY89qW5sIT2aWtffKoiqoxEsX8d9+l6eBZMv713VlvO9kJFolInWg9elh3nf8fpd5mh/TH9/JTL26nfXMWmMsOKJIVYSufpB+u4I9XvTYgo/9yDdkTYCVG/KyewcFKcc6TSO/EzdnW+Ik8ZgM5By/NO9vKOlEzNYecoTkGU8yfYzuszUU5AWSwMtMktvCDRH4kMFc8OsQ2ryI6ZrxdGUfQUQsflEZ+/KtJK2VKXkH9Wv6zMWoSlvjbqW4mooYesOxp0SLL65Be6tkPv0/nj9+l8KfqL8ePSRYERhE55TlmPMA6EdW2X9ndrTOVjJq9L3l6fb3EtKOvFvy0RFZ5bSvXNy02iM5VpiZtemzu73ncrD+aLZRTtLq8h7nolQjKVn9vxr3TpFk8F/jddOqLSGGLDdrzDOQ3hYzrYmYjy0+Se//JBWlgiRETiQhOuLyZcnW+o3pV4MMQLl2eKqBBZU0LSbJ/FTmhTKbacsHICpayH/x1X8Cvr436HqZBmeaovjeOu3oUo6xqRKN/vuqy8rpPboL9Os3omygkoYxqVjjTEMWE4+nJMO/yyL18+XLWP81GCgM9d+VYtcR4iJdmUs6XrEy3pPVRvd1yV3XquqErnOGHBlxZUaLbPYMoLlHJxByUyS9u632kZ87I+7vfgM07K5lmdgqCrhI9vnykodZSxqOtEIorLbwiKfPXrvM6lKMqCBuE5pdz3rmfrOB8qPsuU588zmTIfOtrJ7495l2W583IfvhJRob1WhC2NkVSfBRVRvoF5J4swSit6JEP79K7Twip7z75aK1Y2oIMhrsQnIUIxaFGGBsAJsEbZmxFRDE9wNGRqS3J+OnIPXmdTagonhc8PQqo+3zthsl+2Mf/iPH+8cHCKuiWhVDpmwSE1F6gQ+9bbPhHlHtr9uW8J2Y76H+yty7MGUbWP+1P3fRzgk+TnxYifjneOPmSxEUVUPlVPpuyll9jqc/20PB1ZcotUqJX1sgUsRJjF4+foivmC3LyMLP8uP6bzr0SfIaKG+mszIiqfPmpMMy2ddemzivHiGahydT7rPWsh7zhuJO++LZebjVvPTilMvJBKUwqrMrL6p7FZnufHrm5bMfYzoVhfQ0aLqEqoydgoytU3hMReWZv0AheShy2i7ClqEqn4p/E+JTtyZDrYpYgKq9DlosmXFd9pVDn8Uv9821/v8DxoECCSd7VoAtuuFC1iT1mZUKJzSlBV1zZ1jp7+lqWL5QTRJPmWi0AUdR73LqY673oqH9tR+td4btb1WYqiaTFo9rFu+4Tfh0RU/1TyxsISzSXO7ehDilR4ZzuPqhTPS7l2KZGg21mIKP+8VRHlkiln8m6kyuHP2fbcDNXbn+Ocfsm3IURK0ZK4zNueCT3dxvJ72eZwPJYTRFOyaS64vGjSkUHL3pZNZAEKfW5h61hXW0Rx2/Py87InFlGunHIBifJ33obcT16r36+q/eHzl2mP+XJeL4hkhb7SX3czyaIvroVRfl7ui9V+fS6iOACDJc6NRQbyDk4DC/t3ui16RdR2vScqXtzmjK8iEjV/fT+790QNttUJHS0iQt81xMxgfvPKwNzUqxZi3qat/XM2lubGjrDLPI/FXhHVO5WP+7UhosAefLxtZsA9izfwrrJ5HpfTrNtCR6KmaSjkNad/1kNvdXd/VPYS5nwXkL76ze65IM+9iOqo6+mvbmilqw3/sZRRUcU6RNRMxoebvptFt8TmEFH4rxEWdvr2MH3+ZmtBnPZCOrH/h/7bNny92+l2Rf0jI2BgJv9PY+wLEQUItx3CMcBaaX/3AdEjl4ge+eCq3RbrXRzsrH//azqzm/p/J4go7g+rv0I/8eISvNLV3ddO2309qj9lCqkxvU/ygYiagp2T0+PEEy+WYUxV9GN794mo1uIMzWXWhc1Zb4vpbjJVULbmlMFp1Wk7y55CG+J1qrG8+ZlLD9ODS4/ZY2v/LXqU/896V59NY8r6T5y3fflUvGKKmn5uZwq2H9P2fLpbWa98at6YfCdJu51lT1I/pJlsjEFEbfGgBZiTgQk7wU5gAAyAATAABsAAGAAD88oARBRElH03DHaBXcAAGAADYAAMgAEwAAbAgMnAXImoeVWaqBfugoABMAAGwAAYAANgAAyAATAgDEBEQV2b6loAwRYXCzAABsAAGAADYAAMgAEwkDMAEQURBREFBsAAGAADYAAMgAEwAAbAwAgGIKJGGAsKPFfgsAfsAQbAABgAA2AADIABMLAbGdjZImrfITqxdIwOQAjhzgEYAANgAAyAATAABsAAGAADW8TAjhZRB95eohMH9wKWLYJlN95lQJtxdw0MgAEwAAbAABgAA2CgZGC+RVRvpOkAHauiUNY+dHrZ6fgNJsAAGAADYAAMgAEwAAbAwMYZmF8R9cIxWlpaomMv2I3be/AELb19oIpCuf1LJ+jQPvs8wAK7gAEwAAbAABgAA2AADIABMLAZBuZSRA0LIY449QilAQG2GYPhXAw4MAAGwAAYAANgAAyAATCwuxmYOxHFzzktVdP0ik5ikfTeIdrb9yyQmwqIZ6YwwAt2+pjBsSqyC37ADxgAA2AADIABMAAGagbmTERxhGlIRO2lQ++1p/nFTg4ialCQwXGG4wwGwAAYAANgAAyAATAABsDACAbmTER5ldc7na93sYmgEjGdD4NgxCCIwhvngBswAAbAABgAA2AADICBCRiYSxHlnNqGEBpc1tyd1/O81ARGgVNdhyxhE9gEDIABMAAGwAAYAANgAAx4BuZXRLHYqaJOAwtKdFjiHGDj4gYGwAAYAANgAAyAATAABmbLwHyLqCJq1FrWHJDMFhLYF/YFA2AADIABMAAGwAAYAAOJgR0lotBxqeNgC9gCDIABMAAGwAAYAANgAAxsDwMQUUW0CyBuD4iwO+wOBsAAGAADYAAMgAEwsFMYgIiCiMIKLGAADIABMAAGwAAYAANgAAyMYAAiaoSxdooyRj1xFwcMgAEwAAbAABgAA2AADMyOgamKKHTU7DoKtoVtwQAYAANgAAyAATAABsDAfDAAEYVIFEK3YAAMgAEwAAbAABgAA2AADIxgACJqhLGg/OdD+aMf0A9gAAyAATAABsAAGAAD28kARBREFO46gAEwAAbAABgAA2AADIABMDCCgZmIqCMv3qYfXjyMjhjREduppFE27uSAATAABsAAGAADYAAMgIHJGZiJiOq60/T1u2v09f7JK4JOg63AABgAA2AADIABMAAGwAAY2AkMzEhEddT94TL98O4NOotoDCJyYAAMgAEwAAbAABgAA2AADCwQA7MTUV1HZ19ba0zrO0XXV1dp9YtTgGmBYNoJdw1QR9zdAgNgAAyAATAABsAAGNgsAzMVUd3+G3T3zct0pBIKEFGb7Ticj8EPBsAAGAADYAAMgAEwAAa2h4HZiihM6UOkrRLQ2wM6LjCwOxgAA2AADIABMAAGwMC0GJitiHILTNymz/+ADptWhyEfsAQGwAAYAANgAAyAATAABraXgdmKKESiEIlCJAoMgAEwAAbAABgAA2AADCwYA7MVUUPPRH17gd5YMIPirsD23hWA/WF/MAAGwAAYAANgAAyAgVkzMFMR1V6d7w268O0qra6u0IW/oJNn3cnIH4yBATAABsAAGAADYAAMgIHpMTA7ETUwle/UF6u0ikgUQruIRIIBMAAGwAAYAANgAAyAgR3GwIxE1Gn6+t01+nq/ofaWrtMqvyMKAgqDZYcNFty9McYz+hDjGAyAATAABsAAGNiFDMxERB158XbjJbtwwuCIgwEwAAbAABgAA2AADIABMLCzGZiJiAIUOxsK9B/6DwyAATAABsAAGAADYAAMtBmAiNqF4UcMiPaAgG1gGzAABsAAGAADYAAMgIEhBioRNXQCjgMqMAAGwAAYAANgAAyAATAABnYzAxBRiEThYUgwAAbAABgAA2AADIABMAAGRjAAETXCWLtZbaPtuNsEBsAAGAADYAAMgAEwAAY8AxBREFG46wAGwAAYAANgAAyAATAABsDACAZMEXXm0sNEPz9E9P2v6cyIzKBMcXcCDIABMAAGwAAYAANgAAyAgUVnwBRR0uirXz1EDy49BlUKIQkGwAAYAANgAAyAATAABsAAGAgM9Iqo7uyviL76DYyFAQMGwAAYAANgAAyAATAABsAAGAgMQERhMGAwgAEwAAbAABgAA2AADIABMDCCAYioEcaSaY7YYp4vGAADYAAMgAEwAAbAABjYvQz0i6ijv6YHP/+KrkJoQJmDATAABsAAGAADYAAMgAEwAAYcA/0iio3khNRDeDYKwOCiAQbAABgAA2AADIABMAAGwEDXUb+I4oUlsMw5QMHFAgyAATAABsAAGAADYAAMgIHIwLCIwup80ViY97p7572i79H3YAAMgAEwAAbAABgAA8IARBQUNUQiGAADYAAMgAEwAAbAABgAAyMYgIgaYSxRntjiLgQYAANgAAyAATAABsAAGNi9DPSKqKtfPUQPLj0GVQqhBQbAABgAA2AADIABMAAGwAAYCAyYIurMpYeJfn6ICMubAxRcLMAAGAADYAAMgAEwAAbAABjIGDBFFEKTuzc0ib5H34MBMAAGwAAYAANgAAyAgX4GIKKgqjNVjQHTP2BgH9gHDIABMAAGwAAYAANgACIKIgoiCgyAATAABsAAGAADYAAMgIERDPx/fmnBsIWLQN0AAAAASUVORK5CYII=;" vertex="1" parent="1">
                    <mxGeometry x="135" y="532" width="849" height="251" as="geometry"/>
                </mxCell>
                <mxCell id="4" style="edgeStyle=orthogonalEdgeStyle;html=1;entryX=0;entryY=0.5;entryDx=0;entryDy=0;" edge="1" parent="1" source="3" target="2">
                    <mxGeometry relative="1" as="geometry"/>
                </mxCell>
                <mxCell id="6" style="edgeStyle=orthogonalEdgeStyle;html=1;" edge="1" parent="1" source="3" target="5">
                    <mxGeometry relative="1" as="geometry">
                        <Array as="points">
                            <mxPoint x="-177" y="29"/>
                        </Array>
                    </mxGeometry>
                </mxCell>
                <mxCell id="3" value="" style="shape=image;verticalLabelPosition=bottom;labelBackgroundColor=default;verticalAlign=top;aspect=fixed;imageAspect=0;image=data:image/png,iVBORw0KGgoAAAANSUhEUgAAARQAAACRCAYAAAACekemAAAdxklEQVR4Ae2dz4tdRfbAXbty4WIWwl25yrgxA0HHhaAZBxEnG8eZaOYb24ghq6ADJkMmNtOhDSQLexG+oBGJbUjULPziKDaBQTEBxe6QhTjQ9h8R/4E+X05Vnapz6se9772u2/3ue2cRXr9bv849dc6nzqn7buW+pmmgyr8/XoHbp1fgr7X6037qzIvqcS70+PL/fgvr6+uwfuPsnt7vfVVggkarQNnTiaw2jwognccd2EA9oOxACHWGSlGizoHCYI9tQIGyxxOgMFWYzpINKFAUKLqqqw1UswEFihpTNWOapZVW72WyyFGBokBRoKgNVLMBBYoaUzVj0lV9slV9lvSWAcpbcHX5G/1NyTSBBh/J45yYf1/Bpd/tteE+Au8vnYI7bzwBTfME3Fg5Bd8dfWRiML39xs7a755Dsns98Cx8t3IKbjy313MxXeMPByi/W4Gby1fgH304+rFbcHFrEw710feO+7SAv/rHaTKcikAxjvkSvD2OniZpM07/xboKlC54Z4AyTYbLZJlXoPR530XHYXov1AlRhYXLpCv1kaMnxo9u9gwo/F4RLifg/QPduupywlkqF0D56+GvQmh94i0RwmLZzcMrNh3CSIHCcKqH30+8BbyPm4f/wvpwqRSF7uJn+n+BS6e/AVyF/3EiDu2jdtR+eZzQfwmOb2zD5S36R9HINTjjr1EZft6D48eCoRxaay+7uLoEB1bv+f7PnA9tm0aOgXXHMiCj51xk1qYzOz6fC0yXQpSDOr0Cl9x83zz8ltH/7bF0yu9x0r9LTmkjgTsrp8D8W3oWjhiwRdepXDh2VMe3RRkDEBCItv8ICs+95K5jeVRWgOtY8znjfQigkGKMIRIonAKscaITW0M27+3w1TMGjCkjp7dtAmBcH34M9335G6A6Biy+vIGGjzXmpBhnX7tWduSWlMe03bgFB9yYFhwEpAY8bFz/sr4FWYCIhYsETt4ZYxj4PRSvkw6dxSAy32k+HKSxLzdvBHPSP9lCn58Yndh9GKmDEP3I616WYoRigRH2c+z3MIb7zvZ8DFjMXlADjemXQcTAZcx0bEzb9Pc0I+3GA4oxZmvIZrXjTo6GWYg6rNFGqyxv28SAybwbJOoXDK0wKTEEkkksAiUHAAsJgoIBCgNOw/vCv3lZ09hIpg1u8T3EYPDlbTqzZTEcENL2GgLFwYXNWygfT7+JPr2Mbf2EaCFub5xcRBZRPyWg5AAg6saAaaDBNm6sNP0qyxjLrN/tHPUOFGPAzGi94gUgGKRKxijqRwZWasOu+0hiaxtCxOD64RBgbWy6ItOfpkmBkvRHfZzf9GlQSLe24XJFoIQ0huskr88AjCkACnNkbxOkN5eaUMqT7M8ISLD7zvUp6rYDIqRBlA7Zz2R8LycbW6+ZDKB3oBiDz62y4lreAYSh7RAooS8bdQgItAJlGygasX3IqAVBJfrihoVAiSKUIMeIxij0xNu06cyWyQiFX9t7oHSmNaRHA4To8ayABNNJLkIR17qBEtIl1i/Jop/lbQOnm96AYvcAKM2xOXswcG7cOHFtzkETa/vIr8hUZ5TPeF8D20hIcKePUxq5R2L3UIpAcf2Wy0eQdyKgNG5znPTvUkj/2H03gOLSi9zGZgkIWYe1m6wySshdQ13a6wEKVob4u+yLzYGBD9tDycrD6mt5AhgGFOvUfvOPnqa4TcCwUcucn0cNxvDpCQ1+MmM2irdA8P37zUWcINZn2ySJMWiDsWuCLUA6Uw6Rnsg0h6dLl6Pfq7RGKOZeLKz4+DLi6ZB/QqAgFOXGLtfX3gKltBlrQR49pWEbqBz0Zu9jlKc8tOFq5qI9QjH9G6jwlEc3ZYXe2/yzaYABpcOwOzrSA5Z2qL8u/c5MOQJDo4BxnHRIdRUoM+OoCrQhOd6syqpAUaAkefCsGrveV/+LTj2gqGOqY6oNzL0NKFDUCebeCTRyqRe5KFAUKAoUtYFqNqBAUWOqZky60tdb6YeqSwWKAkWBojZQzQYUKGpM1YxpqKuqyl0vslKgKFAUKGoD1WxAgaLGVM2YdKWvt9IPVZcKFAWKAkVtoJoNKFDUmKoZ01BXVZW7XmSlQFGgKFDUBqrZgAJFjamaMelKX2+lH6ouFSgKFAWK2kA1G1CgqDFVM6ahrqoqd73ISoGiQFGgqA1UswEFihpTNWPSlb7eSj9UXSpQFCgKFLWBajagQFFjqmZMQ11VVe56kZUCRYGiQFEbqGYDChQ1pmrGpCt9vZV+qLpUoChQFChqA9VsQIGixlTNmIa6qqrc9SIrBYoCRYGiNlDNBhQoakzVjElX+nor/VB1qUBRoChQ1Aaq2YACZZqM6fwF2No4DQvVZXoIbn9/H/yyrCvoUFf+ocjNgLIExze24fIW+7d2rRq5uhVixz9zPjb6jFxbm3AocroDq/eY7Pfg+DHXz7FbcHFrGy6uLvl7ObSG95j20S1jLFvl7z0B5fqX9wF8+Rt//3t+n9HcqTyV7WgP9ZsAJTj0NTgTOWK/E98OlDYgGJhs3IIDTpEWLg4Y5zfh8sY9uOjheA3O4Pd5AcryAwD/fQCu76GR9Ws3s+OMs6CnFqBYB+eO3DQWMhTFyLIGGnReFuEEOLlJj8qpvY0YWGTk+rDlOTn4NZSJRSTGcRiccMy1W3B8IwDmzPlcm4JhUtRw7DTc3foUtvDf2gJb7Z+CqxvuelK2AF9vXYB3eNsopVlY/cD2SX2L8ra+bdnX5xt4Z43G/wCuUmRm9KCpziw46ZDuoQwUlyoEKHAnRuezcAnl1+CMjwIILiytMDCJHZ87MYOAWE3jcW0bAyEcz8jJxnFtfbkByjXAqAVlPbSGdccEinH2C/AO9m3gEBzXOLMHjHXyu6tPOeAgUNDZXdvGfkcIGCNBWPky1JncQ2nvO8CGxpP1G2gWHoRfNTph8Of2pn/3AaoEKCHCiJwfHZelFSiMSS04RAQIuNPmoSBvaDyg+LERGJFcXDZfD+Vf23TQ47J1GJZx+gCQpgmRQWMAQbBgkPBRBgKEt7XRhAUA76fUtq1vBxQPsxRIDaY73z8I58S8dNyv1lUA7cAGEqDYiCMDABNhpGnJZQaUNHUhKMXRTM6oxwOKj0BaIhRMmTxQGt4//k2y5WRh16KoQUCQpzKUsuBnDaB09p0BUmQI5z68X4ES6UTMn5ZVh2cBKIWUJRMJ0AQZxxUbnTwK4M7MnFVMaKmOvU77LXY8Cyh7jY9DfYe+UC7ZFuuEcpK/+NkJlCiKEPe0gwjFAKWt726gaIRC9qCfRfsW9rpzPZWB4pwuOCN34nRgAxQGHButhCggBU7ah486xE3GQLHfeZpj2rGxuSyjAuXsjXVYX1+HzxYjudqA4tIfuUnL27cBxW2mUspCEYmPbjIpjdDLCEDRPZTqK/BuOeZQx2kBCkUpAQq0ERv2WbbNRqe9eQscKru4eit5+mKhEtKmACtywrgP/O2IAwh7esTTLFK8BZjrm8EFr6fjpBHKZEBBuZ3js5SHNkntHktpDwXb2k1a8+SIngZ5oHT1PQJQGvuU59cPH1LHEjAme9NP8p9anwwoqtxaSp2qfvR3KArTXYSpAmUXlb1XoNFfyupiuVu2p0CZA6A0LvXRd3kULH2DRYEyF0BRR+rbkbR/a2MKFAWK7jGoDVSzAQ+UJ598slqnSmuNCNQG5tMGFCi6OulCojZQzQYUKGpM1YxJo5L5jEr4vCtQFCgKFLWBajYwR0B5DR7/4XN4/uY/4eE2AzryT3j6h3dhX1sdLfMGuPzCz7B58mfYfCGciMdXrGn7e2jyTpv+uuTZJaA4Z0aHpn+fvOaNskvIOuXDBEr+1YEpCa0f+wI2T34ByxMAdt8qwNPvnttlGyC9HYWPX/0ZvnqMvutnHR9roDegPPrnN2HxtYPOYKwzP36WJu4g7L/5OTy/61Ch8Vs+pyxCmWagvPLMjxNHJnsLlAZQ9jvPHI2A9ii8+Pc34cX9LfYxATxrOesQ+ukFKAdfW4TFxdfhoFd+DJQGmrPvwvM+tbCAQeDs+4SimI9g/5EwsQ9f+ihENz98DgFOmb4beU20zUHMyELj4qdMeUT7qAzlffrSQeB1gmxB/qIxROfM0IuM8YuU9NKleDHSnAUTXrZMy+h0uvSlSZRHjpGeeleU2c1rG1AefvdX+NO34P/9/rTVRXzd11m9Hpz78G14mrX9U1L2C+xrrsPvqc6/b7M09hzs/3cYV7T19lgCSgPNH16HxcVFeP0PI8wd669LV/NSXhkoSPhFWPz7i/CoULZ0cKPcDFAwHULnxHIDFnJ+UZdgFIAj6uK4hSjDOD31SfKZuqGvpG00tumD7cN4ALp+4/J2Q8qd5SINuRyh2DezxRGc/FBxDxt6Wzyqb0AWIGLgwt7SbpfbylgEigECOr28F95nOUKxoCAANQ4cPj3ysPkV9h/G/mV97DdAxMLFt2Xy5CMUJ+/+F+HNxUV488+PBsixtvw+9G85xxWBchBeX1xkaQ4fKAaK/U7waJpMCoSObBzXloW6tl+KDMyERgBBp47rY70cUEQ/aDRRX1guIw6UPQDIAIUBJm7fbnDWySkqydUtASULAH4cpgNKAA6epxuOcsC/eZk9moLg8y/4v59+gp/if7c/hP9hjoUbnGna0EDjnD5AgduCm7/CHoqJYETE0UBz+hf4E13L9B3ghHCJQMbbMtkb3P959Qq8wq+Jv9vsOb2f3NzN47V6QHGhYtg34Uq3APEbsiwSsUoPKU86CfkyCQJeB/8ODs/7Gx8otl8ut/079C/l4Pc84t8+ksC0JEQMJDeHAF3DTwMUdvymKUuAkvZn+8icMWPOmyGgtMtuIpOTHZua6MjZlMT2HSAgxzJA4SkOOjmHQlv046MXlvKgDAQjAYwGDFROFqDYOKAs6p4Kt7uuv+sBxUzWGCmPmFwOBGlgFL3IiMPW59c8LDDC4BEDG8fXYdcSIIgIpU0u5xhuD6VL0aOU2z0NCYFWoEQpiohaDKhkX0GG9ICpUIb3tcMIhekX+zVpSOTUrUCJ6oqopRMoUYQSyUL3WUzXsL6mPBOnepWBYp1spE1ZMdHtjmtAwDdDo30NYyQOJPsufRSlKAFQOaCYax5AFEmFTdlkbCG33evhYCODnegz2tfAPgQk+NhJShPtkbQChTZkS8AJOmu7j1anZLIKILjruWtmrCSlkXskNp0qQcNtyMYRDpOF7qe4h+Jgopuyo9kA6ZM+ewEKdt7+2DgWth0o2J91bHoSE1IOuhH8NPsZHDzGkGzfSdriN2d5OfaLUAlASceWP45LIpyM8XIZxd8GIOwpTfIflqGeovSEpzkiXQr7I2aMDqBgHRsRsfGjiEfImrmvElAMLCjdMZ85ALQ8jYlSF7Gp2hahGBmjfr/N/94lDxR9bNw1513lvQGla2Atj6E6vO8loAxhbvNAGd4cTJuuFSiZlXfaJmlq5el8UjKtDqq/lO3LphQoCpSJN+DQKIf2boyXt/WR8bSCcPrlUqAoUHYElL5WOu13+uGRmyMFigJFgaI2UM0GFChqTNWMKbdi6bVhRhqTzpsCRYGiQFEbqGYDChQ1pmrGNOmqpu1mJ4pRoChQFChqA9VsQIEyTcZkfvbNz5GZnZVLo5D5mMvdBYp5B6f95/N9Gd6OfiK/S9DBd6CSMzhUZ9VWz75sS/sNsOwNKPJdHnoXh7+DcxD2f9JxYHRFR+4NKHhsgz/qMig2a2StEQi+Li+jE/v+0pzrrKINZOdE+68K7F6AMv7bxnSwEUUv0Xmz/rAlclh5yBE6Hr7xa18OtH3QoUjypcKW/unwbHZ4kjFAGtsca+Da+xcLUZ7SkQ0kq/vsOFowBnATHWOZdQYuE8rP5SK5vcMMUGde9kiXer0qBLK2NaGOKwOl4FwmbJdv8MqbsMcGEATImfyxACM4B75NTPUNRPyRBNYYixGKcUoWBcSymu8IEid/XN8pPoVocAIDi9aDejA6iQ7yieVIJni2dSbtI+hSr0+3LioCpeXIvA7nyAHAHGJNUMD29LdxrHS1FauzcXoJsBJQKLoJhhodpWBkZ8Bxx1UG+IUJzoGjDTR+TIxe4nN451hnXi8JRIOutc506qIeUNqOgBzFOXi4jobEIcL/rgwUnibxM1M8MJKxyxNpgcLP1aVjBOXeiHQGG9UlB/rMrc7K+pV603rTqI96QDGOXkh5XK7vnTRaeXIRiriWOHW9CKUUufjJSsbOG3JbJJKLXHz/pY3aOdeZ109kK3o9b3/TopfKQLE3m3MuGwnwNIQ95UmcJ9ofEKs1nbAW0hADHx7hZFIeAShupKbv0FcyMSMAxdxvnLLwMfDvwqYstk0eFbu2c6+zWIf6fWo3Y8lvegEKdm5W5ehxqkwvIid2UKG0gzZYSVDe9vGz40codNg19S/2XAxU2BMg2oBFA+4CCoIiuk+SOflMopHMZmzkNPy+n4+fQM2DziJ9JDrV8qmCTG9A0YnvDk1z0FW9detNdTS9OlKg6Ao3VSucwmJ6YTHK3ChQFCgKFLWBajagQFFjqmZMo6xgWmfYEUjX/ClQFCgKFLWBajagQFFjqmZMXauXls92dILzq0BRoChQ1Aaq2YACRY2pmjFpBDL7EUjXHCtQFCgKFLWBajawZ0Bp+8l5FwX7KDc/zf/hcyi9b+TH7PrlrBpnNeP0OledDkanewOU+Cfo0U/I+dkmu2VUChQN13fL1mZ5nN6A0vazciwTL8QZoPB3e+zLgfH7PFMxEVUjFHw7OzpYSVfjwazGU2GPU2YvvQAl97ZxUH7mhbgEKO4MWjpUyZTjm8oWNOYFPypzCi2+RGde/ONvObsX/vwLgKzP+OU71zdFL/7FQjE2vf2cOx4yHNYU5OPgLL+FHPSlkYPqYjg2UBkohfNQGEWzkctIQEGHJWe0EKD9jvhoAgsAgoisi8ZpyvlxB0Y+rEf9swmMgRRFKAYUvi8LkBBZBdjQNVnfjWNSwPIxBupQbD6YLalepk8vFYHScgSkN4LC6WQxUMx3tkEaf28acyC1ddIUGHRUgQCOcPoMOEz0E18PEYY3XgEUHJvA5SZXlDug+LHbjkMYRX/TZ0BeL36OVcZ51kk9oLQdAUnGhnVyBxE5YPiUIn7aYsojx6U+RwEBb49/i5SFHCAXoXQAJSO3TMcy7b3cNC59OqDEh1UX61M7/ZxnB562e68HFGP47SlP8VGxccw4OmCOwoGQOFguQomvBcfGdIfSDzkZkwKlBDqUP4wrx2L3hvejKY9uxCZ2HdnIQMorA8UqIbspGz8q5graEVBs+sNPxY/3VNCZLUheg/03SwDIAcX1TSkLRSQ+wrHAEKe/8fsaBSgOJskh1aKfYRpXK0T1/mYSor0ABQ0p3nyNvwtj2yFQsK/wFIX9HzrCaG3Ukji/2XTlxz/yzV90ZNfO/Edg78I+lNUDBcsdVPx/FBb+fyAqo70ccc9GNn1snOpE4TlknfQGFKmUzKNi4exqRFJfqg/VxzBtYJeAMkzlqFHrvKkNjGcDChSNlGYyl1cQjAeCWvpSoChQFChqA9VsQIGixlTNmGqtctrP3kQXNfTugVKjM+1juIagc6dzV8MGFCgaoWiEojZQzQYUKGpM1YypxgqnfQw7UlKgKFAUKGoD1WxgB0BZguMb23Dm/LCJOuQV8Z21T2Fry/67u/pUNaMYsk5i2VFHJd288syPsPnCEtPbI/D+0im488YT0DRPwI2VU/Dd0UdY+R7a+nMvwZ2VE/D+gQaOHD0Bd1Zegrc5CH97Be68egVe4dfY39e/vA9+We5ffgUKKv3YLbi4tQmH2ATEhtnb92On4e7WBXgnMzYHRhs42pymN7kz8oqxzl+ArY3TsJDUW4CvHQTpnrbWFkZ22oXVDzxEffvsONZ5irp57AvYPPkFLAv59hgoCI2lZ+GIkMlBoAsoTQPLL/wcAZIBZOFB+PW/98PtBXYtN84OrylQUIFTDJTS6sqdt+g0OzQOPsbYf3cA5Wsf2VrAhO+jGbwBSwtISN68bpbgq5M/w1ePpWO9/QZFJRYuN55L61Df1T/bgHLgWfiOopJivaPw8av5+zKyLj8A8P2DcK5HuxgTKNfgzNY2XGb/eMpzYPVesczc0PlNUX5xlcJN7PceHD8WJu/Q2jbYckyt7sHxVdd27RpgGcpQHptHG679MS47lfNr/L6kLO2Gk1lxtz6Aq/5eZHkAhLzuV1vWNu8MQUckV7EeOrWPBmKZLsBVt9rfXV2AqxuYOsV1CikV9ru2ADxa8PdlIq7QLoxPUVgKEC5/DhSjXrP6eMrdS5DBy+YcKU11Up2SbsUnObJx7lNwZ4XSI9eeX4/LGkpVXLuVU+BhFbfDtuZflNaMAgKMvIqpz0Nw+/tS6nMWPltfh/UbZ0eOFoVunGxjAMXumQQIRHsoBhbkqA005jtzzPi7UE4XULbh8sYtOGAiCQsaA6+1a/bmo7FNGdY3Y1g5L3tgxfexswgFncGH7M6ZwmprjTsYdOpMTUfKE9qWjZ47pJ9k0y8DhIGLdGojt4MOyhz66ZCbQEWpiujbyYnXshFErAP8zuSM5W5iWWz/OcjgvYv5cN+lDjtWcWGXkc5N2oHO7hzdgMDua9Cei4dEvAdj2jJAmO/U1o1DwGqTobMMo68f4ePfRrK7duc+vB/gy99koLHbQEGn9U6KwnKgZJy0aUwkEaIMijhyN9oNFBONsNSEAwUjFh6tNA3vj8tpx+ZtjQOyfr1Ddk4c9hU7R2T86ByRUxlHIEfEMTqAElZ4u+IGWAU9BhCEaziOdCQrm23PnJg5vu+nS27WxuqL9Ud6S+qQbFZn/L6knBxsZf1kgZLRpb8nkqtpd7jW+U8gENIis1Ea7394QNh68QZvSK+cbnx90tUknx3A7DntGT1CGQEo0qk5UGxqEZeHyeMAsEqUKY8DBnP8AAULDJ6G2b8pOuoTKNZJZYTCVlt0Kp9yhBDc1x8BKLGzBZ0FY0udxq3UmbFHAkqX3AksxgdKAGOkQ9QJ6z8Fo73viYGCT0NaVvCcfv21Foc3QDFPh8K8NL5+AI/vq2mgH6DYzdk7zxzNRCENNGZz9gG47gHL5K1wrSpQQjqEQvKoJXVqrlgZUdgbHBcoZVilYwcYOWUyUEm5upWNzsyhIQDAHKPYb2ZVpbo5UFAZ/8zVy10LbRgAmIy+DbsW2jBdJOWsPzLKpA61txFKAIoEiB2P+kPYMEBT301j92+i6C8X7fl78m13GKHEUYjrNxehhGu5CCVzzQOIdDXJ57RFKH97D77FzZn/vAcv+0mgfQZa9W30wTdGjZPyR6+5fQ1ezvs2KUpIW2xflCIxIDDH51BIxhZ9s/buOm9rDbgrgnoZ3vvPOqyvfwvv/Y1NcgsMgmOUfwfB6wgHc3KmzsDGZveYrYcOzfcmWH2bqjlHZY4f+rFOL+DI27M24R4ixze6ia6ZPmKg2AglHstGIB/AXZ4eMhmyEUqUgpo6W7H+OxyOjWHvjem8zeHdxmq8h0LfDVxo7wXHwL74d7wm9mTYuG0yJWXtwOzcQ4n9Pum/Xa5MhELO8xmcjTojR0eQYDQS713w8rAJGgSQ5QQMV24A5J60uCc5fP/FRCAFoODEx32H/Z5RgEKbyPSkJ4DTGhXpJAIKbQJGqYV0DutAPIpJ4GGcnyKd4ITo4Lwd/h36TvuV5W7lF7LxTdk2oOCcpP17uUcBCkURfnw+dnRfOWgYIH0KfkxniwQJoRceqXBduidRQWfW1sxTnuKTkGCvYwEF5Yue1sR7JhYq9AQn2pB19yfrsE3cyBcT2ah84qc8ZRsvjkVjss8MUBo4eyMTobBG4www03VzEUpxZW4xVNVtmu/ndFtNT7iKt/xeo9o4uz3nHdFXx4ZsDb+XQFn8DNZz6c5gFdzzhJrVkFZeO5ZdQeW1mYZqL7aRT4Oq6jH7S9me7aUXXQWZJ/6lbEW/l0Dp+YarGsSUyJqmJQqTyefZPfHBNCmXBlWe84l/4FZZjsn1FWDSDP9dHnYz06hglSlNI1QnqpOebUAjlJ4VXGX1URkVBAOxAQXKQCZKwaQR8RBsQIGiQNHVX22gmg0oUNSYqhnTEFZQlbHfSE+BokBRoKgNVLMBBYoaUzVj0tW/39V/CPpVoChQFChqA9VsQIGixlTNmIawgqqM/UZRChQFigJFbaCaDfw/SS13Su9BoSQAAAAASUVORK5CYII=;" vertex="1" parent="1">
                    <mxGeometry x="-315" y="270" width="276" height="145" as="geometry"/>
                </mxCell>
                <mxCell id="9" style="edgeStyle=orthogonalEdgeStyle;html=1;" edge="1" parent="1" source="5" target="8">
                    <mxGeometry relative="1" as="geometry">
                        <Array as="points">
                            <mxPoint x="477" y="49"/>
                            <mxPoint x="477" y="-1275"/>
                        </Array>
                    </mxGeometry>
                </mxCell>
                <mxCell id="11" style="edgeStyle=orthogonalEdgeStyle;html=1;" edge="1" parent="1" source="5" target="10">
                    <mxGeometry relative="1" as="geometry"/>
                </mxCell>
                <mxCell id="5" value="&lt;div style=&quot;color: #cccccc;background-color: #1f1f1f;font-family: Consolas, &#39;Courier New&#39;, monospace;font-weight: normal;font-size: 14px;line-height: 19px;white-space: pre;&quot;&gt;&lt;div&gt;&lt;span style=&quot;color: #c586c0;&quot;&gt;import&lt;/span&gt;&lt;span style=&quot;color: #cccccc;&quot;&gt; {&lt;/span&gt;&lt;span style=&quot;color: #9cdcfe;&quot;&gt;createStore&lt;/span&gt;&lt;span style=&quot;color: #cccccc;&quot;&gt;,&lt;/span&gt;&lt;span style=&quot;color: #9cdcfe;&quot;&gt;applyMiddleware&lt;/span&gt;&lt;span style=&quot;color: #cccccc;&quot;&gt;} &lt;/span&gt;&lt;span style=&quot;color: #c586c0;&quot;&gt;from&lt;/span&gt;&lt;span style=&quot;color: #cccccc;&quot;&gt; &lt;/span&gt;&lt;span style=&quot;color: #ce9178;&quot;&gt;&quot;redux&quot;&lt;/span&gt;&lt;/div&gt;&lt;div&gt;&lt;span style=&quot;color: #c586c0;&quot;&gt;import&lt;/span&gt;&lt;span style=&quot;color: #cccccc;&quot;&gt; &lt;/span&gt;&lt;span style=&quot;color: #9cdcfe;&quot;&gt;createSagaMiddleware&lt;/span&gt;&lt;span style=&quot;color: #cccccc;&quot;&gt; &lt;/span&gt;&lt;span style=&quot;color: #c586c0;&quot;&gt;from&lt;/span&gt;&lt;span style=&quot;color: #cccccc;&quot;&gt; &lt;/span&gt;&lt;span style=&quot;color: #ce9178;&quot;&gt;&#39;../redux-saga&#39;&lt;/span&gt;&lt;/div&gt;&lt;div&gt;&lt;span style=&quot;color: #c586c0;&quot;&gt;import&lt;/span&gt;&lt;span style=&quot;color: #cccccc;&quot;&gt; {&lt;/span&gt;&lt;span style=&quot;color: #9cdcfe;&quot;&gt;reducer&lt;/span&gt;&lt;span style=&quot;color: #cccccc;&quot;&gt;} &lt;/span&gt;&lt;span style=&quot;color: #c586c0;&quot;&gt;from&lt;/span&gt;&lt;span style=&quot;color: #cccccc;&quot;&gt; &lt;/span&gt;&lt;span style=&quot;color: #ce9178;&quot;&gt;&quot;./reducer&quot;&lt;/span&gt;&lt;/div&gt;&lt;div&gt;&lt;span style=&quot;color: #c586c0;&quot;&gt;import&lt;/span&gt;&lt;span style=&quot;color: #cccccc;&quot;&gt; {&lt;/span&gt;&lt;span style=&quot;color: #9cdcfe;&quot;&gt;rootSaga&lt;/span&gt;&lt;span style=&quot;color: #cccccc;&quot;&gt;} &lt;/span&gt;&lt;span style=&quot;color: #c586c0;&quot;&gt;from&lt;/span&gt;&lt;span style=&quot;color: #cccccc;&quot;&gt; &lt;/span&gt;&lt;span style=&quot;color: #ce9178;&quot;&gt;&quot;./sagas&quot;&lt;/span&gt;&lt;/div&gt;&lt;br&gt;&lt;div&gt;&lt;span style=&quot;color: #569cd6;&quot;&gt;const&lt;/span&gt;&lt;span style=&quot;color: #cccccc;&quot;&gt; &lt;/span&gt;&lt;span style=&quot;color: #4fc1ff;&quot;&gt;sagaMiddleware&lt;/span&gt;&lt;span style=&quot;color: #cccccc;&quot;&gt; &lt;/span&gt;&lt;span style=&quot;color: #d4d4d4;&quot;&gt;=&lt;/span&gt;&lt;span style=&quot;color: #cccccc;&quot;&gt; &lt;/span&gt;&lt;span style=&quot;color: #dcdcaa;&quot;&gt;createSagaMiddleware&lt;/span&gt;&lt;span style=&quot;color: #cccccc;&quot;&gt;(); &lt;/span&gt;&lt;/div&gt;&lt;div&gt;&lt;span style=&quot;color: #569cd6;&quot;&gt;const&lt;/span&gt;&lt;span style=&quot;color: #cccccc;&quot;&gt; &lt;/span&gt;&lt;span style=&quot;color: #4fc1ff;&quot;&gt;store&lt;/span&gt;&lt;span style=&quot;color: #cccccc;&quot;&gt; &lt;/span&gt;&lt;span style=&quot;color: #d4d4d4;&quot;&gt;=&lt;/span&gt;&lt;span style=&quot;color: #cccccc;&quot;&gt; &lt;/span&gt;&lt;span style=&quot;color: #dcdcaa;&quot;&gt;applyMiddleware&lt;/span&gt;&lt;span style=&quot;color: #cccccc;&quot;&gt;(&lt;/span&gt;&lt;span style=&quot;color: #4fc1ff;&quot;&gt;sagaMiddleware&lt;/span&gt;&lt;span style=&quot;color: #cccccc;&quot;&gt;)(&lt;/span&gt;&lt;span style=&quot;color: #dcdcaa;&quot;&gt;createStore&lt;/span&gt;&lt;span style=&quot;color: #cccccc;&quot;&gt;)(&lt;/span&gt;&lt;span style=&quot;color: #dcdcaa;&quot;&gt;reducer&lt;/span&gt;&lt;span style=&quot;color: #cccccc;&quot;&gt;);&lt;/span&gt;&lt;/div&gt;&lt;div&gt;&lt;span style=&quot;color: #4fc1ff;&quot;&gt;sagaMiddleware&lt;/span&gt;&lt;span style=&quot;color: #cccccc;&quot;&gt;.&lt;/span&gt;&lt;span style=&quot;color: #dcdcaa;&quot;&gt;run&lt;/span&gt;&lt;span style=&quot;color: #cccccc;&quot;&gt;(&lt;/span&gt;&lt;span style=&quot;color: #dcdcaa;&quot;&gt;rootSaga&lt;/span&gt;&lt;span style=&quot;color: #cccccc;&quot;&gt;);&lt;/span&gt;&lt;/div&gt;&lt;br&gt;&lt;div&gt;&lt;span style=&quot;color: #c586c0;&quot;&gt;export&lt;/span&gt;&lt;span style=&quot;color: #cccccc;&quot;&gt; &lt;/span&gt;&lt;span style=&quot;color: #c586c0;&quot;&gt;default&lt;/span&gt;&lt;span style=&quot;color: #cccccc;&quot;&gt; &lt;/span&gt;&lt;span style=&quot;color: #4fc1ff;&quot;&gt;store&lt;/span&gt;&lt;span style=&quot;color: #cccccc;&quot;&gt;;&lt;/span&gt;&lt;/div&gt;&lt;/div&gt;" style="text;whiteSpace=wrap;html=1;" vertex="1" parent="1">
                    <mxGeometry x="-108" y="-77" width="550" height="212" as="geometry"/>
                </mxCell>
                <mxCell id="12" style="edgeStyle=none;html=1;" edge="1" parent="1" source="7" target="2">
                    <mxGeometry relative="1" as="geometry"/>
                </mxCell>
                <mxCell id="7" value="&lt;div style=&quot;color: #cccccc;background-color: #1f1f1f;font-family: Consolas, &#39;Courier New&#39;, monospace;font-weight: normal;font-size: 14px;line-height: 19px;white-space: pre;&quot;&gt;&lt;div&gt;&lt;span style=&quot;color: #c586c0;&quot;&gt;export&lt;/span&gt;&lt;span style=&quot;color: #cccccc;&quot;&gt; &lt;/span&gt;&lt;span style=&quot;color: #569cd6;&quot;&gt;function&lt;/span&gt;&lt;span style=&quot;color: #cccccc;&quot;&gt; &lt;/span&gt;&lt;span style=&quot;color: #dcdcaa;&quot;&gt;useDispatch&lt;/span&gt;&lt;span style=&quot;color: #cccccc;&quot;&gt;() {&lt;/span&gt;&lt;/div&gt;&lt;div&gt;&lt;span style=&quot;color: #cccccc;&quot;&gt;&amp;nbsp; &lt;/span&gt;&lt;span style=&quot;color: #569cd6;&quot;&gt;const&lt;/span&gt;&lt;span style=&quot;color: #cccccc;&quot;&gt; { &lt;/span&gt;&lt;span style=&quot;color: #4fc1ff;&quot;&gt;store&lt;/span&gt;&lt;span style=&quot;color: #cccccc;&quot;&gt; } &lt;/span&gt;&lt;span style=&quot;color: #d4d4d4;&quot;&gt;=&lt;/span&gt;&lt;span style=&quot;color: #cccccc;&quot;&gt; &lt;/span&gt;&lt;span style=&quot;color: #dcdcaa;&quot;&gt;useContext&lt;/span&gt;&lt;span style=&quot;color: #cccccc;&quot;&gt;(&lt;/span&gt;&lt;span style=&quot;color: #4fc1ff;&quot;&gt;ReactReduxContext&lt;/span&gt;&lt;span style=&quot;color: #cccccc;&quot;&gt;);&lt;/span&gt;&lt;/div&gt;&lt;div&gt;&lt;span style=&quot;color: #cccccc;&quot;&gt;&amp;nbsp; &lt;/span&gt;&lt;span style=&quot;color: #c586c0;&quot;&gt;return&lt;/span&gt;&lt;span style=&quot;color: #cccccc;&quot;&gt; &lt;/span&gt;&lt;span style=&quot;color: #4fc1ff;&quot;&gt;store&lt;/span&gt;&lt;span style=&quot;color: #cccccc;&quot;&gt;.&lt;/span&gt;&lt;span style=&quot;color: #9cdcfe;&quot;&gt;dispatch&lt;/span&gt;&lt;span style=&quot;color: #cccccc;&quot;&gt;;&lt;/span&gt;&lt;/div&gt;&lt;div&gt;&lt;span style=&quot;color: #cccccc;&quot;&gt;}&lt;/span&gt;&lt;/div&gt;&lt;br&gt;&lt;/div&gt;" style="text;whiteSpace=wrap;html=1;" vertex="1" parent="1">
                    <mxGeometry x="1235" y="546" width="419" height="117" as="geometry"/>
                </mxCell>
                <mxCell id="8" value="&lt;div style=&quot;color: #cccccc;background-color: #1f1f1f;font-family: Consolas, &#39;Courier New&#39;, monospace;font-weight: normal;font-size: 14px;line-height: 19px;white-space: pre;&quot;&gt;&lt;div&gt;&lt;span style=&quot;color: #c586c0;&quot;&gt;export&lt;/span&gt;&lt;span style=&quot;color: #cccccc;&quot;&gt; &lt;/span&gt;&lt;span style=&quot;color: #c586c0;&quot;&gt;default&lt;/span&gt;&lt;span style=&quot;color: #cccccc;&quot;&gt; &lt;/span&gt;&lt;span style=&quot;color: #569cd6;&quot;&gt;function&lt;/span&gt;&lt;span style=&quot;color: #cccccc;&quot;&gt; &lt;/span&gt;&lt;span style=&quot;color: #dcdcaa;&quot;&gt;createStore&lt;/span&gt;&lt;span style=&quot;color: #cccccc;&quot;&gt;(&lt;/span&gt;&lt;span style=&quot;color: #9cdcfe;&quot;&gt;reducer&lt;/span&gt;&lt;span style=&quot;color: #cccccc;&quot;&gt;){&lt;/span&gt;&lt;/div&gt;&lt;div&gt;&lt;span style=&quot;color: #cccccc;&quot;&gt;&amp;nbsp; &amp;nbsp; &lt;/span&gt;&lt;span style=&quot;color: #569cd6;&quot;&gt;let&lt;/span&gt;&lt;span style=&quot;color: #cccccc;&quot;&gt; &lt;/span&gt;&lt;span style=&quot;color: #9cdcfe;&quot;&gt;listeners&lt;/span&gt;&lt;span style=&quot;color: #cccccc;&quot;&gt; &lt;/span&gt;&lt;span style=&quot;color: #d4d4d4;&quot;&gt;=&lt;/span&gt;&lt;span style=&quot;color: #cccccc;&quot;&gt; [];&lt;/span&gt;&lt;/div&gt;&lt;div&gt;&lt;span style=&quot;color: #cccccc;&quot;&gt;&amp;nbsp; &amp;nbsp; &lt;/span&gt;&lt;span style=&quot;color: #569cd6;&quot;&gt;let&lt;/span&gt;&lt;span style=&quot;color: #cccccc;&quot;&gt; &lt;/span&gt;&lt;span style=&quot;color: #9cdcfe;&quot;&gt;state&lt;/span&gt;&lt;span style=&quot;color: #cccccc;&quot;&gt;;&lt;/span&gt;&lt;/div&gt;&lt;br&gt;&lt;div&gt;&lt;span style=&quot;color: #cccccc;&quot;&gt;&amp;nbsp; &amp;nbsp; &lt;/span&gt;&lt;span style=&quot;color: #569cd6;&quot;&gt;function&lt;/span&gt;&lt;span style=&quot;color: #cccccc;&quot;&gt; &lt;/span&gt;&lt;span style=&quot;color: #dcdcaa;&quot;&gt;subscribe&lt;/span&gt;&lt;span style=&quot;color: #cccccc;&quot;&gt;(&lt;/span&gt;&lt;span style=&quot;color: #9cdcfe;&quot;&gt;listener&lt;/span&gt;&lt;span style=&quot;color: #cccccc;&quot;&gt;){&lt;/span&gt;&lt;/div&gt;&lt;div&gt;&lt;span style=&quot;color: #cccccc;&quot;&gt;&amp;nbsp; &amp;nbsp; &amp;nbsp; &amp;nbsp; &lt;/span&gt;&lt;span style=&quot;color: #9cdcfe;&quot;&gt;listeners&lt;/span&gt;&lt;span style=&quot;color: #cccccc;&quot;&gt;.&lt;/span&gt;&lt;span style=&quot;color: #dcdcaa;&quot;&gt;push&lt;/span&gt;&lt;span style=&quot;color: #cccccc;&quot;&gt;(&lt;/span&gt;&lt;span style=&quot;color: #9cdcfe;&quot;&gt;listener&lt;/span&gt;&lt;span style=&quot;color: #cccccc;&quot;&gt;);&lt;/span&gt;&lt;/div&gt;&lt;div&gt;&lt;span style=&quot;color: #cccccc;&quot;&gt;&amp;nbsp; &amp;nbsp; &amp;nbsp; &amp;nbsp; &lt;/span&gt;&lt;span style=&quot;color: #c586c0;&quot;&gt;return&lt;/span&gt;&lt;span style=&quot;color: #cccccc;&quot;&gt; ()&lt;/span&gt;&lt;span style=&quot;color: #569cd6;&quot;&gt;=&amp;gt;&lt;/span&gt;&lt;span style=&quot;color: #cccccc;&quot;&gt;{&lt;/span&gt;&lt;/div&gt;&lt;div&gt;&lt;span style=&quot;color: #cccccc;&quot;&gt;&amp;nbsp; &amp;nbsp; &amp;nbsp; &amp;nbsp; &amp;nbsp; &amp;nbsp; &lt;/span&gt;&lt;span style=&quot;color: #569cd6;&quot;&gt;let&lt;/span&gt;&lt;span style=&quot;color: #cccccc;&quot;&gt; &lt;/span&gt;&lt;span style=&quot;color: #9cdcfe;&quot;&gt;idx&lt;/span&gt;&lt;span style=&quot;color: #cccccc;&quot;&gt; &lt;/span&gt;&lt;span style=&quot;color: #d4d4d4;&quot;&gt;=&lt;/span&gt;&lt;span style=&quot;color: #cccccc;&quot;&gt; &lt;/span&gt;&lt;span style=&quot;color: #9cdcfe;&quot;&gt;listeners&lt;/span&gt;&lt;span style=&quot;color: #cccccc;&quot;&gt;.&lt;/span&gt;&lt;span style=&quot;color: #dcdcaa;&quot;&gt;indexOf&lt;/span&gt;&lt;span style=&quot;color: #cccccc;&quot;&gt;(&lt;/span&gt;&lt;span style=&quot;color: #9cdcfe;&quot;&gt;listener&lt;/span&gt;&lt;span style=&quot;color: #cccccc;&quot;&gt;);&lt;/span&gt;&lt;/div&gt;&lt;div&gt;&lt;span style=&quot;color: #cccccc;&quot;&gt;&amp;nbsp; &amp;nbsp; &amp;nbsp; &amp;nbsp; &amp;nbsp; &amp;nbsp; &lt;/span&gt;&lt;span style=&quot;color: #9cdcfe;&quot;&gt;listeners&lt;/span&gt;&lt;span style=&quot;color: #cccccc;&quot;&gt;.&lt;/span&gt;&lt;span style=&quot;color: #dcdcaa;&quot;&gt;splice&lt;/span&gt;&lt;span style=&quot;color: #cccccc;&quot;&gt;(&lt;/span&gt;&lt;span style=&quot;color: #9cdcfe;&quot;&gt;idx&lt;/span&gt;&lt;span style=&quot;color: #cccccc;&quot;&gt;,&lt;/span&gt;&lt;span style=&quot;color: #b5cea8;&quot;&gt;1&lt;/span&gt;&lt;span style=&quot;color: #cccccc;&quot;&gt;);&lt;/span&gt;&lt;/div&gt;&lt;div&gt;&lt;span style=&quot;color: #cccccc;&quot;&gt;&amp;nbsp; &amp;nbsp; &amp;nbsp; &amp;nbsp; }&lt;/span&gt;&lt;/div&gt;&lt;div&gt;&lt;span style=&quot;color: #cccccc;&quot;&gt;&amp;nbsp; &amp;nbsp; }&lt;/span&gt;&lt;/div&gt;&lt;br&gt;&lt;div&gt;&lt;span style=&quot;color: #cccccc;&quot;&gt;&amp;nbsp; &amp;nbsp; &lt;/span&gt;&lt;span style=&quot;color: #569cd6;&quot;&gt;function&lt;/span&gt;&lt;span style=&quot;color: #cccccc;&quot;&gt; &lt;/span&gt;&lt;span style=&quot;color: #dcdcaa;&quot;&gt;dispatch&lt;/span&gt;&lt;span style=&quot;color: #cccccc;&quot;&gt;(&lt;/span&gt;&lt;span style=&quot;color: #9cdcfe;&quot;&gt;action&lt;/span&gt;&lt;span style=&quot;color: #cccccc;&quot;&gt;){&lt;/span&gt;&lt;/div&gt;&lt;div&gt;&lt;span style=&quot;color: #cccccc;&quot;&gt;&amp;nbsp; &amp;nbsp; &amp;nbsp; &amp;nbsp; &lt;/span&gt;&lt;span style=&quot;color: #9cdcfe;&quot;&gt;state&lt;/span&gt;&lt;span style=&quot;color: #cccccc;&quot;&gt; &lt;/span&gt;&lt;span style=&quot;color: #d4d4d4;&quot;&gt;=&lt;/span&gt;&lt;span style=&quot;color: #cccccc;&quot;&gt; &lt;/span&gt;&lt;span style=&quot;color: #dcdcaa;&quot;&gt;reducer&lt;/span&gt;&lt;span style=&quot;color: #cccccc;&quot;&gt;(&lt;/span&gt;&lt;span style=&quot;color: #9cdcfe;&quot;&gt;state&lt;/span&gt;&lt;span style=&quot;color: #cccccc;&quot;&gt;,&lt;/span&gt;&lt;span style=&quot;color: #9cdcfe;&quot;&gt;action&lt;/span&gt;&lt;span style=&quot;color: #cccccc;&quot;&gt;);&lt;/span&gt;&lt;/div&gt;&lt;div&gt;&lt;span style=&quot;color: #cccccc;&quot;&gt;&amp;nbsp; &amp;nbsp; &amp;nbsp; &amp;nbsp; &lt;/span&gt;&lt;span style=&quot;color: #9cdcfe;&quot;&gt;listeners&lt;/span&gt;&lt;span style=&quot;color: #cccccc;&quot;&gt;.&lt;/span&gt;&lt;span style=&quot;color: #dcdcaa;&quot;&gt;forEach&lt;/span&gt;&lt;span style=&quot;color: #cccccc;&quot;&gt;((&lt;/span&gt;&lt;span style=&quot;color: #9cdcfe;&quot;&gt;listener&lt;/span&gt;&lt;span style=&quot;color: #cccccc;&quot;&gt;)&lt;/span&gt;&lt;span style=&quot;color: #569cd6;&quot;&gt;=&amp;gt;&lt;/span&gt;&lt;span style=&quot;color: #cccccc;&quot;&gt;{&lt;/span&gt;&lt;/div&gt;&lt;div&gt;&lt;span style=&quot;color: #cccccc;&quot;&gt;&amp;nbsp; &amp;nbsp; &amp;nbsp; &amp;nbsp; &amp;nbsp; &amp;nbsp; &lt;/span&gt;&lt;span style=&quot;color: #dcdcaa;&quot;&gt;listener&lt;/span&gt;&lt;span style=&quot;color: #cccccc;&quot;&gt;();&lt;/span&gt;&lt;/div&gt;&lt;div&gt;&lt;span style=&quot;color: #cccccc;&quot;&gt;&amp;nbsp; &amp;nbsp; &amp;nbsp; &amp;nbsp; });&lt;/span&gt;&lt;/div&gt;&lt;div&gt;&lt;span style=&quot;color: #cccccc;&quot;&gt;&amp;nbsp; &amp;nbsp; } &amp;nbsp; &lt;/span&gt;&lt;/div&gt;&lt;br&gt;&lt;div&gt;&lt;span style=&quot;color: #cccccc;&quot;&gt;&amp;nbsp; &amp;nbsp; &lt;/span&gt;&lt;span style=&quot;color: #569cd6;&quot;&gt;function&lt;/span&gt;&lt;span style=&quot;color: #cccccc;&quot;&gt; &lt;/span&gt;&lt;span style=&quot;color: #dcdcaa;&quot;&gt;getState&lt;/span&gt;&lt;span style=&quot;color: #cccccc;&quot;&gt;(){&lt;/span&gt;&lt;/div&gt;&lt;div&gt;&lt;span style=&quot;color: #cccccc;&quot;&gt;&amp;nbsp; &amp;nbsp; &amp;nbsp; &amp;nbsp; &lt;/span&gt;&lt;span style=&quot;color: #c586c0;&quot;&gt;return&lt;/span&gt;&lt;span style=&quot;color: #cccccc;&quot;&gt; &lt;/span&gt;&lt;span style=&quot;color: #9cdcfe;&quot;&gt;state&lt;/span&gt;&lt;span style=&quot;color: #cccccc;&quot;&gt;;&lt;/span&gt;&lt;/div&gt;&lt;div&gt;&lt;span style=&quot;color: #cccccc;&quot;&gt;&amp;nbsp; &amp;nbsp; }&lt;/span&gt;&lt;/div&gt;&lt;br&gt;&lt;div&gt;&lt;span style=&quot;color: #cccccc;&quot;&gt;&amp;nbsp; &amp;nbsp; &lt;/span&gt;&lt;span style=&quot;color: #dcdcaa;&quot;&gt;dispatch&lt;/span&gt;&lt;span style=&quot;color: #cccccc;&quot;&gt;({&lt;/span&gt;&lt;span style=&quot;color: #9cdcfe;&quot;&gt;type&lt;/span&gt;&lt;span style=&quot;color: #9cdcfe;&quot;&gt;:&lt;/span&gt;&lt;span style=&quot;color: #ce9178;&quot;&gt;&quot;@@Redux/INIT&quot;&lt;/span&gt;&lt;span style=&quot;color: #cccccc;&quot;&gt;});&lt;/span&gt;&lt;/div&gt;&lt;br&gt;&lt;div&gt;&lt;span style=&quot;color: #cccccc;&quot;&gt;&amp;nbsp; &amp;nbsp; &lt;/span&gt;&lt;span style=&quot;color: #c586c0;&quot;&gt;return&lt;/span&gt;&lt;span style=&quot;color: #cccccc;&quot;&gt; {&lt;/span&gt;&lt;/div&gt;&lt;div&gt;&lt;span style=&quot;color: #cccccc;&quot;&gt;&amp;nbsp; &amp;nbsp; &amp;nbsp; &amp;nbsp; &lt;/span&gt;&lt;span style=&quot;color: #dcdcaa;&quot;&gt;subscribe&lt;/span&gt;&lt;span style=&quot;color: #cccccc;&quot;&gt;,&lt;/span&gt;&lt;/div&gt;&lt;div&gt;&lt;span style=&quot;color: #cccccc;&quot;&gt;&amp;nbsp; &amp;nbsp; &amp;nbsp; &amp;nbsp; &lt;/span&gt;&lt;span style=&quot;color: #dcdcaa;&quot;&gt;dispatch&lt;/span&gt;&lt;span style=&quot;color: #cccccc;&quot;&gt;,&lt;/span&gt;&lt;/div&gt;&lt;div&gt;&lt;span style=&quot;color: #cccccc;&quot;&gt;&amp;nbsp; &amp;nbsp; &amp;nbsp; &amp;nbsp; &lt;/span&gt;&lt;span style=&quot;color: #dcdcaa;&quot;&gt;getState&lt;/span&gt;&lt;span style=&quot;color: #cccccc;&quot;&gt;,&lt;/span&gt;&lt;/div&gt;&lt;div&gt;&lt;span style=&quot;color: #cccccc;&quot;&gt;&amp;nbsp; &amp;nbsp; }&lt;/span&gt;&lt;/div&gt;&lt;div&gt;&lt;span style=&quot;color: #cccccc;&quot;&gt;}&lt;/span&gt;&lt;/div&gt;&lt;/div&gt;" style="text;whiteSpace=wrap;html=1;" vertex="1" parent="1">
                    <mxGeometry x="574" y="-1581" width="413" height="611" as="geometry"/>
                </mxCell>
                <mxCell id="10" value="&lt;div style=&quot;color: #cccccc;background-color: #1f1f1f;font-family: Consolas, &#39;Courier New&#39;, monospace;font-weight: normal;font-size: 14px;line-height: 19px;white-space: pre;&quot;&gt;&lt;div&gt;&lt;span style=&quot;color: #c586c0;&quot;&gt;export&lt;/span&gt;&lt;span style=&quot;color: #cccccc;&quot;&gt; &lt;/span&gt;&lt;span style=&quot;color: #569cd6;&quot;&gt;function&lt;/span&gt;&lt;span style=&quot;color: #cccccc;&quot;&gt; &lt;/span&gt;&lt;span style=&quot;color: #dcdcaa;&quot;&gt;reducer&lt;/span&gt;&lt;span style=&quot;color: #cccccc;&quot;&gt;(&lt;/span&gt;&lt;span style=&quot;color: #9cdcfe;&quot;&gt;state&lt;/span&gt;&lt;span style=&quot;color: #cccccc;&quot;&gt; &lt;/span&gt;&lt;span style=&quot;color: #d4d4d4;&quot;&gt;=&lt;/span&gt;&lt;span style=&quot;color: #cccccc;&quot;&gt; { &lt;/span&gt;&lt;span style=&quot;color: #9cdcfe;&quot;&gt;number&lt;/span&gt;&lt;span style=&quot;color: #9cdcfe;&quot;&gt;:&lt;/span&gt;&lt;span style=&quot;color: #cccccc;&quot;&gt; &lt;/span&gt;&lt;span style=&quot;color: #b5cea8;&quot;&gt;0&lt;/span&gt;&lt;span style=&quot;color: #cccccc;&quot;&gt; }, &lt;/span&gt;&lt;span style=&quot;color: #9cdcfe;&quot;&gt;action&lt;/span&gt;&lt;span style=&quot;color: #cccccc;&quot;&gt;) {&lt;/span&gt;&lt;/div&gt;&lt;div&gt;&lt;span style=&quot;color: #cccccc;&quot;&gt;&amp;nbsp; &lt;/span&gt;&lt;span style=&quot;color: #c586c0;&quot;&gt;switch&lt;/span&gt;&lt;span style=&quot;color: #cccccc;&quot;&gt; (&lt;/span&gt;&lt;span style=&quot;color: #9cdcfe;&quot;&gt;action&lt;/span&gt;&lt;span style=&quot;color: #cccccc;&quot;&gt;.&lt;/span&gt;&lt;span style=&quot;color: #9cdcfe;&quot;&gt;type&lt;/span&gt;&lt;span style=&quot;color: #cccccc;&quot;&gt;) {&lt;/span&gt;&lt;/div&gt;&lt;div&gt;&lt;span style=&quot;color: #cccccc;&quot;&gt;&amp;nbsp; &amp;nbsp; &lt;/span&gt;&lt;span style=&quot;color: #c586c0;&quot;&gt;case&lt;/span&gt;&lt;span style=&quot;color: #cccccc;&quot;&gt; &lt;/span&gt;&lt;span style=&quot;color: #9cdcfe;&quot;&gt;ActionTypes&lt;/span&gt;&lt;span style=&quot;color: #cccccc;&quot;&gt;.&lt;/span&gt;&lt;span style=&quot;color: #4fc1ff;&quot;&gt;ADD&lt;/span&gt;&lt;span style=&quot;color: #cccccc;&quot;&gt;:&lt;/span&gt;&lt;/div&gt;&lt;div&gt;&lt;span style=&quot;color: #cccccc;&quot;&gt;&amp;nbsp; &amp;nbsp; &amp;nbsp; &lt;/span&gt;&lt;span style=&quot;color: #c586c0;&quot;&gt;return&lt;/span&gt;&lt;span style=&quot;color: #cccccc;&quot;&gt; { &lt;/span&gt;&lt;span style=&quot;color: #9cdcfe;&quot;&gt;number&lt;/span&gt;&lt;span style=&quot;color: #9cdcfe;&quot;&gt;:&lt;/span&gt;&lt;span style=&quot;color: #cccccc;&quot;&gt; &lt;/span&gt;&lt;span style=&quot;color: #9cdcfe;&quot;&gt;state&lt;/span&gt;&lt;span style=&quot;color: #cccccc;&quot;&gt;.&lt;/span&gt;&lt;span style=&quot;color: #9cdcfe;&quot;&gt;number&lt;/span&gt;&lt;span style=&quot;color: #cccccc;&quot;&gt; &lt;/span&gt;&lt;span style=&quot;color: #d4d4d4;&quot;&gt;+&lt;/span&gt;&lt;span style=&quot;color: #cccccc;&quot;&gt; &lt;/span&gt;&lt;span style=&quot;color: #b5cea8;&quot;&gt;1&lt;/span&gt;&lt;span style=&quot;color: #cccccc;&quot;&gt; };&lt;/span&gt;&lt;/div&gt;&lt;div&gt;&lt;span style=&quot;color: #cccccc;&quot;&gt;&amp;nbsp; &amp;nbsp; &lt;/span&gt;&lt;span style=&quot;color: #c586c0;&quot;&gt;default&lt;/span&gt;&lt;span style=&quot;color: #cccccc;&quot;&gt;:&lt;/span&gt;&lt;/div&gt;&lt;div&gt;&lt;span style=&quot;color: #cccccc;&quot;&gt;&amp;nbsp; &amp;nbsp; &amp;nbsp; &lt;/span&gt;&lt;span style=&quot;color: #c586c0;&quot;&gt;return&lt;/span&gt;&lt;span style=&quot;color: #cccccc;&quot;&gt; &lt;/span&gt;&lt;span style=&quot;color: #9cdcfe;&quot;&gt;state&lt;/span&gt;&lt;span style=&quot;color: #cccccc;&quot;&gt;;&lt;/span&gt;&lt;/div&gt;&lt;div&gt;&lt;span style=&quot;color: #cccccc;&quot;&gt;&amp;nbsp; }&lt;/span&gt;&lt;/div&gt;&lt;div&gt;&lt;span style=&quot;color: #cccccc;&quot;&gt;}&lt;/span&gt;&lt;/div&gt;&lt;br&gt;&lt;/div&gt;" style="text;whiteSpace=wrap;html=1;" vertex="1" parent="1">
                    <mxGeometry x="717.0028571428574" y="-869.0014285714285" width="459" height="193" as="geometry"/>
                </mxCell>
            </root>
        </mxGraphModel>
    </diagram>
</mxfile>